<?xml version="1.0" standalone="no"?>
<!DOCTYPE svg PUBLIC "-//W3C//DTD SVG 20010904//EN"
 "http://www.w3.org/TR/2001/REC-SVG-20010904/DTD/svg10.dtd">
<svg version="1.0" xmlns="http://www.w3.org/2000/svg"
 width="196.000000pt" height="196.000000pt" viewBox="0 0 196.000000 196.000000"
 preserveAspectRatio="xMidYMid meet">
<metadata>
Created by potrace 1.14, written by Peter Selinger 2001-2017
</metadata>
<g transform="translate(0.000000,196.000000) scale(0.100000,-0.100000)"
fill="#000000" stroke="none">
<path d="M858 1646 c-10 -7 -18 -18 -18 -24 0 -6 -9 -14 -20 -17 -11 -4 -33
-18 -47 -31 -24 -22 -26 -28 -16 -54 10 -28 8 -32 -39 -76 -28 -26 -51 -52
-52 -58 -1 -7 -11 -27 -22 -46 -33 -58 -72 -162 -84 -231 -22 -120 -15 -288
16 -399 9 -30 16 -57 16 -60 0 -13 45 -91 83 -145 50 -71 63 -105 41 -105 -20
0 -46 -27 -46 -48 0 -33 18 -44 74 -49 50 -4 61 -2 94 23 40 29 92 84 92 96 0
5 35 7 77 5 l77 -2 49 125 c27 69 71 181 98 250 26 69 69 178 94 243 85 219
87 227 80 260 -3 18 -8 50 -11 72 -13 105 -77 137 -195 99 -41 -14 -54 -14
-79 -4 -53 22 -107 67 -141 117 -17 26 -39 54 -47 61 -20 16 -52 15 -74 -2z
m52 -17 c0 -4 -11 -6 -24 -5 -13 0 -22 4 -20 8 6 9 44 6 44 -3z m132 -144 c38
-35 51 -40 98 -44 75 -4 79 -13 5 -10 -33 2 -71 9 -86 16 -20 10 -31 10 -52 0
-29 -13 -49 -44 -22 -33 11 4 14 2 9 -6 -5 -7 -2 -9 7 -6 8 3 21 -2 29 -10 13
-14 12 -15 -4 -9 -10 4 -29 10 -42 13 -18 5 -23 12 -20 29 6 31 -9 50 -41 50
-24 0 -27 4 -28 38 -1 26 1 35 9 27 5 -5 18 -10 27 -10 11 0 19 -9 21 -22 2
-15 11 -24 26 -26 13 -2 22 -10 22 -20 0 -11 3 -13 8 -6 4 6 14 13 22 16 9 3
2 8 -17 12 -18 4 -36 12 -39 18 -4 7 -2 8 4 4 7 -4 12 -1 12 9 0 9 -4 14 -10
10 -5 -3 -19 4 -30 15 -11 11 -26 18 -32 14 -7 -4 -8 -3 -4 4 4 6 14 9 24 6
14 -5 14 -4 3 4 -11 8 -23 5 -44 -10 -37 -26 -43 -43 -23 -63 17 -17 22 -40 7
-31 -5 4 -12 0 -15 -6 -3 -7 -3 -3 0 10 4 17 1 22 -13 22 -19 0 -43 18 -43 31
0 4 25 28 56 52 l57 45 37 -46 c20 -26 57 -65 82 -87z m-162 121 c0 -2 -17
-16 -37 -32 -26 -19 -33 -22 -23 -9 24 33 60 58 60 41z m-80 -60 c0 -3 -4 -8
-10 -11 -5 -3 -10 -1 -10 4 0 6 5 11 10 11 6 0 10 -2 10 -4z m40 -97 c0 -4
-14 -4 -30 1 -18 5 -28 5 -25 -1 3 -5 -1 -6 -11 -2 -13 5 -15 2 -10 -18 3 -13
3 -18 0 -11 -11 24 -22 1 -14 -28 10 -34 8 -36 -14 -14 -23 23 -20 30 25 75
39 38 42 39 60 23 10 -9 19 -21 19 -25z m488 1 c17 -11 32 -27 32 -37 0 -15
-2 -14 -14 3 -12 15 -17 16 -27 7 -10 -10 -9 -15 1 -28 7 -8 8 -15 4 -15 -5 0
-15 9 -21 20 -10 16 -10 21 3 28 14 8 13 10 -1 22 -15 12 -21 12 -45 -2 -15
-9 -33 -12 -40 -8 -8 5 -3 11 16 18 42 15 55 14 92 -8z m-416 -8 c-7 -2 -9 -9
-6 -14 4 -7 2 -8 -4 -4 -6 4 -9 13 -6 21 4 8 11 12 17 8 8 -5 7 -8 -1 -11z
m38 -14 c0 -5 -4 -8 -10 -8 -5 0 -10 10 -10 23 0 18 2 19 10 7 5 -8 10 -18 10
-22z m-127 -19 c-6 -20 -41 -41 -55 -32 -12 6 13 52 31 56 24 5 30 -1 24 -24z
m234 12 c-2 -10 0 -26 5 -35 6 -10 5 -16 -2 -16 -5 0 -10 7 -10 15 0 8 -4 15
-9 15 -5 0 -11 9 -14 20 -4 15 0 20 15 20 15 0 19 -5 15 -19z m194 -4 c-10 -9
-11 -8 -5 6 3 10 9 15 12 12 3 -3 0 -11 -7 -18z m-378 -12 c-7 -21 -13 -19
-13 6 0 11 4 18 10 14 5 -3 7 -12 3 -20z m254 -14 c-1 -11 -7 -17 -14 -14 -14
5 -17 25 -7 36 11 11 23 -2 21 -22z m73 8 c0 -5 -7 -9 -15 -9 -15 0 -20 12 -9
23 8 8 24 -1 24 -14z m-484 -26 c-7 -7 -26 7 -26 19 0 6 6 6 15 -2 9 -7 13
-15 11 -17z m191 -257 c-1 -151 -6 -278 -10 -282 -8 -8 -8 535 0 549 2 4 6 7
8 7 2 0 3 -123 2 -274z m360 268 c-3 -3 -12 -4 -19 -1 -8 3 -5 6 6 6 11 1 17
-2 13 -5z m-453 -20 c18 -7 12 -24 -10 -24 -8 0 -14 7 -14 15 0 17 2 18 24 9z
m126 -234 c0 -132 -4 -240 -8 -240 -5 0 -8 105 -7 233 3 251 3 247 10 247 3 0
5 -108 5 -240z m407 222 c11 -6 23 -18 27 -27 5 -13 2 -13 -19 1 -17 11 -36
14 -55 10 -17 -3 -30 -1 -30 4 0 19 -31 10 -40 -12 -6 -17 -9 -18 -9 -6 -2 41
72 58 126 30z m-629 -10 c6 -18 -15 -14 -22 4 -4 10 -1 14 6 12 6 -2 14 -10
16 -16z m157 -267 c0 -156 -4 -287 -8 -291 -4 -4 -7 121 -7 278 0 240 3 298
15 298 0 0 1 -128 0 -285z m99 203 c-1 -29 -2 -116 -3 -192 -1 -77 -4 -137 -7
-133 -4 3 -6 82 -6 174 1 225 1 230 10 216 4 -7 7 -36 6 -65z m-232 40 c-7 -7
-12 -8 -12 -2 0 14 12 26 19 19 2 -3 -1 -11 -7 -17z m263 -147 c-1 -88 -4
-163 -8 -167 -4 -4 -7 70 -7 165 0 95 4 170 8 167 4 -2 7 -77 7 -165z m25
-109 c-7 -12 -9 24 -8 123 0 77 4 145 7 150 3 6 7 -50 9 -123 1 -77 -2 -140
-8 -150z m131 221 c-9 -15 -10 -13 -11 13 0 17 3 34 8 38 11 12 14 -32 3 -51z
m-91 -65 c0 -61 -3 -109 -6 -106 -3 4 -6 48 -6 100 0 110 0 118 7 118 3 0 5
-50 5 -112z m35 32 c-3 -109 -15 -115 -15 -7 0 48 4 87 8 87 5 0 8 -36 7 -80z
m29 39 c2 -19 0 -43 -4 -54 -5 -13 -8 1 -8 38 -1 63 7 72 12 16z m176 26 c0
-8 -4 -15 -9 -15 -13 0 -22 16 -14 24 11 11 23 6 23 -9z m40 -6 c0 -5 -7 -9
-15 -9 -15 0 -20 12 -9 23 8 8 24 -1 24 -14z m-556 -4 c-4 -8 -10 -12 -15 -9
-11 6 -2 24 11 24 5 0 7 -7 4 -15z m24 -602 c-12 -24 -26 -43 -30 -43 -11 0
-49 109 -63 183 -28 144 3 317 78 432 l32 50 3 -290 c3 -286 3 -291 -20 -332z
m-57 597 c1 -5 2 -17 2 -25 0 -29 -3 -35 -14 -35 -8 0 -8 5 1 15 10 12 9 15
-4 15 -10 0 -27 -5 -38 -11 -16 -9 -19 -8 -15 3 2 7 10 12 16 11 6 -2 11 3 11
11 0 20 39 35 41 16z m-87 -16 c9 -24 8 -26 -14 -14 -11 6 -18 15 -15 21 9 14
22 11 29 -7z m616 0 c0 -17 -22 -14 -28 4 -2 7 3 12 12 12 9 0 16 -7 16 -16z
m84 1 c3 -9 0 -15 -9 -15 -16 0 -27 14 -18 24 10 10 21 7 27 -9z m-177 -17
c-3 -8 -6 -5 -6 6 -1 11 2 17 5 13 3 -3 4 -12 1 -19z m137 7 c3 -8 12 -15 21
-15 8 0 15 -4 15 -10 0 -5 -7 -10 -15 -10 -8 0 -15 4 -15 9 0 5 -9 7 -20 4
-15 -4 -20 0 -20 16 0 24 25 29 34 6z m-44 -20 c0 -1 -7 -8 -15 -15 -13 -10
-15 -9 -15 8 0 15 5 20 15 16 8 -4 15 -7 15 -9z m-556 -20 c3 -8 -3 -19 -13
-25 -15 -7 -20 -6 -25 7 -4 9 -1 20 6 25 19 11 25 10 32 -7z m-90 -10 c-7 -16
-24 -21 -24 -6 0 8 7 13 27 20 1 1 0 -6 -3 -14z m666 7 c0 -13 -12 -22 -22
-16 -10 6 -1 24 13 24 5 0 9 -4 9 -8z m32 -7 c0 -5 -5 -11 -11 -13 -6 -2 -11
4 -11 13 0 9 5 15 11 13 6 -2 11 -8 11 -13z m-181 -28 c-8 -8 -11 -7 -11 4 0
20 13 34 18 19 3 -7 -1 -17 -7 -23z m-471 8 c0 -8 -7 -15 -15 -15 -9 0 -12 6
-9 15 4 8 10 15 15 15 5 0 9 -7 9 -15z m540 -22 c-1 -16 -1 -30 0 -33 11 -22
5 -46 -11 -46 -10 0 -16 3 -13 7 2 4 -1 9 -6 11 -7 2 -4 19 7 45 21 50 25 53
23 16z m63 3 c4 -10 1 -13 -9 -9 -7 3 -14 9 -14 14 0 14 17 10 23 -5z m25 -11
c-3 -3 -9 2 -12 12 -6 14 -5 15 5 6 7 -7 10 -15 7 -18z m-613 -18 c-11 -6 -21
-5 -28 2 -17 17 12 34 31 19 11 -10 10 -13 -3 -21z m-78 17 c-3 -3 -12 -4 -19
-1 -8 3 -5 6 6 6 11 1 17 -2 13 -5z m507 -26 c-5 -42 -14 -49 -14 -11 0 25 6
43 15 43 1 0 1 -14 -1 -32z m196 -18 c-11 -28 -20 -52 -20 -54 0 -3 -8 -3 -17
-2 -10 2 -18 5 -18 8 0 8 65 98 70 98 3 0 -4 -23 -15 -50z m-38 30 c6 0 6 -6
-2 -15 -7 -8 -9 -15 -5 -15 4 0 2 -7 -5 -15 -17 -21 -30 -9 -30 27 0 23 4 29
16 24 9 -3 20 -6 26 -6z m-626 -18 c-3 -3 3 -12 14 -19 24 -17 16 -37 -11 -30
-26 7 -24 -15 3 -32 20 -12 20 -14 4 -23 -13 -8 -22 -6 -34 6 -9 9 -12 16 -7
16 9 0 14 25 15 78 0 14 4 20 11 17 6 -4 8 -10 5 -13z m-49 2 c-3 -3 -12 -4
-19 -1 -8 3 -5 6 6 6 11 1 17 -2 13 -5z m97 -9 c-4 -8 -11 -12 -16 -9 -6 4 -5
10 3 15 19 12 19 11 13 -6z m383 -67 c-2 -13 -4 -5 -4 17 -1 22 1 32 4 23 2
-10 2 -28 0 -40z m-487 14 c0 -5 -7 -9 -15 -9 -8 0 -12 4 -9 9 3 4 9 8 15 8 5
0 9 -4 9 -8z m540 -12 c-11 -21 -30 -19 -30 3 0 8 3 8 9 -1 7 -11 9 -11 14 2
4 9 9 16 12 16 3 0 1 -9 -5 -20z m29 -31 c-17 -21 -32 -39 -34 -39 -10 0 19
62 31 67 8 3 11 9 8 14 -3 5 2 6 10 3 13 -5 11 -13 -15 -45z m-110 -16 c0 -29
-2 -33 -8 -18 -7 18 -4 55 5 55 2 0 4 -17 3 -37z m166 9 c3 -7 2 -19 -2 -24
-3 -6 -2 -8 3 -5 5 3 10 -10 10 -28 0 -18 -4 -32 -8 -29 -4 2 -5 13 -3 24 3
14 -3 22 -20 26 -17 4 -22 11 -18 22 3 10 -11 -1 -31 -23 l-38 -40 36 46 c36
46 61 57 71 31z m41 9 c-4 -5 -1 -11 4 -13 7 -2 6 -15 -4 -38 l-15 -35 -1 41
c0 22 3 44 7 47 9 10 15 8 9 -2z m-606 -23 c12 7 20 8 20 2 0 -5 -5 -10 -10
-10 -7 0 -7 -6 0 -19 13 -25 13 -41 -1 -41 -6 0 -9 7 -6 15 5 11 0 13 -23 8
-29 -5 -42 9 -20 22 5 3 7 13 4 23 -5 14 -4 15 5 2 9 -12 14 -13 31 -2z m-70
-8 c0 -5 -7 -10 -16 -10 -8 0 -12 5 -9 10 3 6 10 10 16 10 5 0 9 -4 9 -10z
m523 -10 c-3 -12 -8 -19 -11 -16 -5 6 5 36 12 36 2 0 2 -9 -1 -20z m-92 -77
c-8 -14 -10 -8 -11 28 0 25 3 49 8 53 11 12 14 -62 3 -81z m179 47 c0 -5 -4
-10 -10 -10 -5 0 -10 5 -10 10 0 6 5 10 10 10 6 0 10 -4 10 -10z m-607 -17
c-7 -2 -19 -2 -25 0 -7 3 -2 5 12 5 14 0 19 -2 13 -5z m61 -9 c14 -5 14 -9 4
-22 -11 -13 -10 -15 5 -9 11 4 17 2 17 -8 0 -20 -30 -47 -48 -43 -26 5 -18 23
14 29 27 5 28 6 7 13 -13 4 -27 5 -32 2 -5 -4 -8 2 -6 11 2 10 4 21 4 26 1 9
14 9 35 1z m337 -51 c-2 -68 -11 -67 -11 2 0 32 3 55 7 52 3 -4 5 -28 4 -54z
m85 28 c-4 -6 -16 -16 -26 -21 -17 -9 -19 -8 -13 7 11 31 25 45 36 34 5 -5 6
-14 3 -20z m77 14 c-6 -17 -25 -15 -31 3 -2 7 5 12 17 12 14 0 19 -5 14 -15z
m32 -15 c-5 -8 -11 -8 -17 -2 -6 6 -7 16 -3 22 5 8 11 8 17 2 6 -6 7 -16 3
-22z m35 -16 c0 -8 -7 -14 -15 -14 -17 0 -18 2 -9 24 7 18 24 12 24 -10z m-96
7 c3 -5 15 -7 25 -4 25 6 37 -15 18 -34 -13 -14 -16 -13 -26 5 -7 14 -17 19
-27 15 -15 -5 -15 -7 1 -15 15 -9 15 -11 -1 -29 -15 -17 -15 -19 0 -25 21 -8
21 -34 0 -34 -10 0 -14 6 -11 15 4 8 3 16 -1 19 -6 4 -7 32 -3 81 1 17 17 20
25 6z m-539 -21 c3 -5 1 -10 -4 -10 -6 0 -11 5 -11 10 0 6 2 10 4 10 3 0 8 -4
11 -10z m375 -52 c0 -35 -4 -58 -8 -51 -4 7 -7 25 -6 40 1 15 3 38 3 51 1 12
3 22 6 22 3 0 5 -28 5 -62z m250 27 c0 -8 -4 -15 -9 -15 -13 0 -22 16 -14 24
11 11 23 6 23 -9z m-523 -10 c0 -17 -13 -20 -21 -6 -4 5 0 12 6 14 7 3 13 6
14 6 0 1 1 -6 1 -14z m330 -3 c0 -10 -7 -24 -14 -31 -16 -15 -16 -9 -1 24 13
30 17 31 15 7z m29 -14 c-25 -61 -26 -63 -21 -29 4 29 20 61 31 61 2 0 -3 -15
-10 -32z m104 7 c0 -8 -4 -15 -9 -15 -13 0 -22 16 -14 24 11 11 23 6 23 -9z
m39 -16 c-22 -14 -29 -11 -29 11 0 18 3 19 21 9 17 -9 19 -13 8 -20z m-599 11
c0 -5 -4 -10 -10 -10 -5 0 -10 5 -10 10 0 6 5 10 10 10 6 0 10 -4 10 -10z
m100 -10 c16 -1 -29 -20 -47 -20 -15 0 -21 6 -20 19 1 16 6 17 31 10 17 -5 33
-9 36 -9z m231 -118 c-7 -13 -10 -7 -9 28 0 25 3 61 6 80 6 30 7 26 10 -28 2
-34 -1 -70 -7 -80z m-318 101 c-7 -2 -13 -12 -13 -21 0 -13 -3 -13 -12 -4 -10
10 -10 15 2 22 8 5 20 9 25 9 6 0 4 -3 -2 -6z m97 -13 c0 -5 -2 -10 -4 -10 -3
0 -8 5 -11 10 -3 6 -1 10 4 10 6 0 11 -4 11 -10z m367 -27 c0 -29 -1 -33 -7
-18 -6 14 -9 15 -9 5 -1 -9 5 -22 12 -29 10 -10 9 -12 -3 -9 -8 2 -14 -2 -13
-9 2 -7 -4 -10 -13 -6 -13 5 -13 7 -2 14 9 6 9 9 1 9 -9 0 -9 8 -2 30 6 17 15
30 21 30 5 0 6 5 3 10 -3 6 -2 10 2 10 5 0 9 -17 10 -37z m107 -13 c-3 -16
-14 -46 -25 -67 -11 -21 -18 -31 -15 -22 5 19 -37 32 -52 17 -6 -6 -13 -5 -17
4 -5 7 -5 10 0 6 4 -4 14 -3 22 3 7 6 13 8 13 4 0 -4 7 -2 15 5 8 7 12 17 8
23 -3 5 -1 7 4 4 6 -4 17 1 24 10 12 14 11 15 -11 8 -13 -4 -30 -14 -38 -21
-19 -20 -22 -18 -22 15 0 28 2 29 29 21 31 -9 57 2 47 19 -4 7 -1 9 7 5 10 -4
14 -15 11 -34z m-487 22 c22 -14 -2 -34 -31 -26 -21 5 -24 9 -15 20 13 16 28
18 46 6z m208 -72 c-4 -87 -15 -87 -15 -1 0 40 4 70 8 67 5 -3 8 -33 7 -66z
m-298 38 c-3 -8 -6 -5 -6 6 -1 11 2 17 5 13 3 -3 4 -12 1 -19z m68 -7 c3 -5 1
-12 -4 -15 -5 -3 -11 1 -15 9 -6 16 9 21 19 6z m326 -28 c-10 -17 -10 -16 -11
3 0 23 13 41 18 25 2 -6 -1 -18 -7 -28z m-363 10 c-1 -10 1 -24 5 -31 10 -15
0 -52 -14 -52 -5 0 -9 7 -9 15 0 8 5 15 10 15 6 0 10 4 10 10 0 5 -6 7 -14 4
-21 -8 -30 28 -10 43 23 17 26 16 22 -4z m84 -4 c-5 -22 -17 -30 -35 -23 -13
5 -14 9 -5 24 13 20 45 19 40 -1z m153 -60 c0 -33 -4 -67 -9 -75 -8 -10 -10 8
-8 67 4 93 14 98 17 8z m-132 32 c3 -13 1 -18 -9 -14 -7 2 -10 11 -7 19 7 19
10 18 16 -5z m188 -54 c-19 -31 -21 -36 -21 -57 0 -5 -5 -10 -11 -10 -6 0 -7
5 -2 13 4 6 8 19 10 27 1 8 10 32 20 54 12 27 19 34 21 23 2 -9 -6 -32 -17
-50z m41 -6 c-13 -35 -17 -41 -20 -24 -2 12 2 32 9 45 7 13 12 30 11 38 -2 12
-1 13 7 1 6 -9 3 -30 -7 -60z m73 51 c-3 -3 -11 0 -18 7 -9 10 -8 11 6 5 10
-3 15 -9 12 -12z m-350 -2 c7 -11 -15 -80 -26 -80 -13 0 -18 42 -7 66 12 26
23 30 33 14z m143 -82 l-3 -33 -18 26 c-17 25 -17 28 0 58 18 31 18 31 21 6 2
-13 2 -39 0 -57z m210 66 c18 -12 22 -25 22 -67 -1 -40 -3 -48 -11 -34 -5 9
-18 17 -28 17 -10 0 -18 7 -18 15 0 8 6 15 13 15 16 0 36 34 27 44 -4 3 -22
-8 -40 -26 -35 -34 -37 -26 -10 30 12 26 16 27 45 6z m71 -10 c-9 -11 -8 -14
5 -14 14 0 14 -5 -4 -52 -22 -58 -36 -77 -36 -49 0 11 4 17 8 15 4 -3 8 0 8 5
0 6 -4 11 -10 11 -5 0 -9 19 -9 43 l2 42 7 -40 7 -40 2 37 c0 20 6 40 11 43 6
4 7 11 4 17 -4 7 -2 8 5 4 9 -6 9 -11 0 -22z m-385 7 c3 -5 -1 -11 -9 -15 -9
-3 -15 0 -15 9 0 16 16 20 24 6z m47 -42 l22 -31 -23 12 c-28 15 -66 -2 -76
-33 -6 -18 -7 -19 -16 -3 -14 26 1 56 35 71 18 8 33 14 34 15 1 0 12 -14 24
-31z m269 27 c0 -2 -8 -10 -17 -17 -16 -13 -17 -12 -4 4 13 16 21 21 21 13z
m-112 -61 c-1 -14 -6 -25 -10 -25 -10 0 -10 13 -2 34 9 23 14 19 12 -9z m-157
-28 c-11 -31 -60 -34 -54 -3 4 18 3 19 -7 6 -9 -12 -11 -12 -8 -1 2 8 15 16
28 18 13 2 26 5 28 8 12 11 20 -8 13 -28z m215 17 c-1 -8 -6 -17 -12 -21 -5
-4 -6 -4 -2 1 4 5 3 14 -2 21 -7 8 -5 12 4 12 8 0 13 -6 12 -13z m-174 -16 c5
-13 -18 -64 -32 -73 -5 -3 -7 -12 -3 -20 3 -9 -1 -15 -9 -15 -18 0 -52 57 -38
65 5 3 10 1 10 -4 0 -17 18 -13 40 9 21 21 28 46 8 34 -7 -4 -8 -3 -4 4 9 15
23 15 28 0z m68 -23 c-7 -9 -15 -13 -18 -10 -3 2 1 11 8 20 7 9 15 13 18 10 3
-2 -1 -11 -8 -20z m150 9 c0 -9 -5 -14 -12 -12 -18 6 -21 28 -4 28 9 0 16 -7
16 -16z m-117 -31 c-3 -7 -11 -13 -19 -13 -17 0 -17 5 -3 32 8 16 13 18 19 8
5 -7 6 -19 3 -27z m-133 23 c0 -2 -8 -10 -17 -17 -16 -13 -17 -12 -4 4 13 16
21 21 21 13z m280 -9 c0 -8 -7 -14 -15 -14 -11 0 -12 4 -4 14 6 7 13 13 15 13
2 0 4 -6 4 -13z m-230 -7 c0 -5 -5 -10 -11 -10 -5 0 -7 5 -4 10 3 6 8 10 11
10 2 0 4 -4 4 -10z m140 -24 c0 -31 32 -40 49 -14 6 10 16 16 21 13 17 -10 11
-20 -21 -34 -26 -11 -33 -11 -47 1 -9 8 -24 19 -32 23 -13 8 -13 7 -1 -8 7
-10 9 -17 3 -17 -18 0 -20 24 -4 43 21 24 32 21 32 -7z m46 13 c7 -12 -15 -31
-28 -23 -4 3 -8 12 -8 20 0 17 26 19 36 3z m-127 -35 l21 -26 -31 -39 c-32
-41 -87 -85 -95 -76 -3 3 4 24 16 47 12 23 19 48 16 56 -4 10 -2 12 6 8 8 -5
9 -2 5 10 -5 11 -3 15 5 10 8 -5 9 -2 5 10 -4 10 -3 15 3 11 6 -3 10 -1 10 4
0 19 18 12 39 -15z m-87 -6 c-7 -7 -12 -8 -12 -2 0 14 12 26 19 19 2 -3 -1
-11 -7 -17z m238 -18 c0 -5 -5 -10 -11 -10 -5 0 -7 5 -4 10 3 6 8 10 11 10 2
0 4 -4 4 -10z m-285 -81 c-6 -27 -44 -47 -65 -34 -17 10 2 35 26 35 21 0 24 5
25 38 0 34 1 35 10 13 5 -14 7 -37 4 -52z m35 61 c0 -5 -4 -10 -10 -10 -5 0
-10 5 -10 10 0 6 5 10 10 10 6 0 10 -4 10 -10z"/>
<path d="M848 437 c-31 -76 -31 -78 -15 -71 8 3 28 23 42 45 23 32 25 41 15
54 -18 22 -23 19 -42 -28z m33 -6 c-6 -10 -18 -24 -27 -32 -10 -8 -15 -9 -11
-3 3 6 11 23 17 38 5 15 14 24 20 21 6 -4 7 -13 1 -24z"/>
</g>
</svg>
