<svg width="148" height="48" viewBox="0 0 148 48" fill="none" xmlns="http://www.w3.org/2000/svg">
  <g clip-path="url(#clip0_175_13112)">
    <path
      d="M7.40712 13.2101C7.79184 13.2101 8.10384 12.8981 8.10384 12.5134C8.10384 12.1286 7.79184 11.8166 7.40712 11.8166C7.0224 11.8166 6.7104 12.1286 6.7104 12.5134C6.71076 12.8979 7.0224 13.2097 7.40712 13.2101Z"
      fill="#A39161" />
    <path
      d="M6.3016 34.8097C5.87157 34.8095 5.52285 35.1582 5.52267 35.5882C5.52249 36.0183 5.87121 36.367 6.30124 36.3672C6.73128 36.3673 7.07999 36.0186 7.08017 35.5886C7.07964 35.1589 6.73146 34.8104 6.3016 34.8097Z"
      fill="#A39161" />
    <path
      d="M1.83695 32.8855C1.82871 32.9878 1.83748 33.0906 1.8631 33.19C1.8862 33.2904 1.91844 33.3886 1.95928 33.4833C2.60513 33.2236 3.28304 32.8746 3.15642 31.4372C3.10895 31.102 3.04447 30.7694 2.96298 30.4407C2.38752 28.0883 2.14931 25.6659 2.25534 23.2464C2.43444 19.6639 4.20293 16.3639 5.05314 14.7779C5.2301 14.4477 5.37016 14.1871 5.43804 14.0295C5.6904 13.4474 4.63332 12.5447 4.20257 12.2429C4.00394 12.3659 3.86406 12.5649 3.81552 12.7935C3.78203 12.9398 3.78919 13.0924 3.83648 13.2348C2.56089 15.1453 1.63796 17.2688 1.11157 19.5049C1.11157 19.5049 1.08721 19.5953 1.06465 19.7146C0.724704 21.2288 0.554016 22.7761 0.555807 24.328C0.541479 24.3597 0.561539 25.0299 0.569419 25.213C0.518912 27.8265 0.948585 30.4271 1.83695 32.8855Z"
      fill="#A39161" />
    <path
      d="M21.7855 15.5133C21.3936 15.5131 21.0757 15.8308 21.0757 16.2227C21.0755 16.6146 21.3932 16.9325 21.7851 16.9325C22.177 16.9325 22.4949 16.615 22.4949 16.2231C22.4944 15.8314 22.1772 15.5138 21.7855 15.5133Z"
      fill="#A39161" />
    <path
      d="M17.4599 27.241C17.8396 27.241 18.1474 26.9332 18.1474 26.5535C18.1474 26.1739 17.8396 25.8661 17.4599 25.8661C17.0803 25.8661 16.7725 26.1739 16.7725 26.5535C16.7725 26.9332 17.0803 27.241 17.4599 27.241Z"
      fill="#A39161" />
    <path
      d="M23.4365 13.8185C23.7789 12.5863 23.4186 11.7536 23.0553 11.2698C22.8408 10.9809 22.5669 10.7413 22.2521 10.5672C20.8785 9.63263 19.2003 10.2599 19.1501 10.283C18.3381 10.8312 17.3299 11.0049 16.3812 10.7601C13.8225 10.1071 11.8086 6.82695 11.4305 6.17608L11.2186 5.92049C11.1574 5.85208 11.0752 5.80623 10.9847 5.78975L10.4909 5.46736C10.3684 5.3839 10.2063 5.38801 10.0883 5.47757L10.0382 5.51482C10.0337 5.51482 10.0296 5.51267 10.0244 5.51196C9.70609 5.4824 9.388 5.5716 9.13153 5.7627C8.80914 5.97512 8.4957 6.31238 8.53099 6.64265L7.88352 7.12766C7.62149 7.14916 7.37038 7.24122 7.15653 7.39417C6.89952 7.56128 6.62835 7.82832 6.56799 8.11185L6.14745 8.42761L6.0785 8.48797L6.07062 8.52522C6.04841 8.56015 6.033 8.59884 6.02548 8.63949C6.01509 8.66421 6.01062 8.69107 6.01241 8.71776L6.0176 8.82254L6.04769 8.85979C6.09587 8.95597 6.41235 9.58839 6.62065 9.98171C5.95366 10.5889 5.33682 11.2489 4.77622 11.9554C5.31461 12.3806 6.35701 13.3534 5.9653 14.2573C5.88757 14.4364 5.75038 14.6934 5.55963 15.049C4.7293 16.5979 3.00111 19.8212 2.82899 23.2751C2.72636 25.6432 2.96028 28.014 3.52392 30.3166C3.61186 30.6693 3.68028 31.0266 3.72864 31.3869C3.88303 33.1364 2.96816 33.6813 2.28147 33.9711C2.80338 35.1512 3.46983 36.262 4.26506 37.2782C4.86219 37.9601 5.66172 39.2312 5.49891 39.9883C5.31121 39.9199 5.10882 39.9014 4.91181 39.9346C4.53407 40.0198 4.21831 40.2772 4.05873 40.63C3.82858 41.1324 3.92565 41.724 4.30428 42.1264C4.63921 42.4517 5.13873 42.5262 5.7459 42.3253C5.75109 42.3376 5.75718 42.3494 5.76381 42.3611C5.82918 42.4798 5.94775 42.5599 6.08244 42.576C6.18094 42.5869 6.27981 42.5925 6.37903 42.5925C7.4714 42.5925 9.20603 41.9423 11.2998 38.8669C12.0303 38.9989 12.6642 39.0972 13.1761 39.1583L14.0035 39.3034C14.3503 39.4168 15.104 39.3736 15.4907 38.3925L23.8371 16.8033C24.3005 15.8161 24.1445 14.6492 23.4381 13.8183L23.4365 13.8185ZM11.2686 7.64474C11.2865 7.67591 13.098 10.7839 16.5689 11.4946C16.7969 11.5422 17.029 11.5668 17.2618 11.568C17.9867 11.568 18.5363 11.3074 19.0683 11.0554C19.568 10.8187 20.038 10.5962 20.6068 10.5962C20.7669 10.5966 20.9265 10.6141 21.0829 10.6489C22.7946 11.025 22.9128 12.8128 22.9139 12.8307C22.9221 12.969 22.8168 13.0877 22.6785 13.096C22.6783 13.096 22.6787 13.096 22.6785 13.096H22.6627C22.5302 13.0956 22.4206 12.9926 22.412 12.8603C22.4082 12.8019 22.3061 11.4316 20.9749 11.1393C20.8543 11.1124 20.7311 11.0988 20.6075 11.0986C20.1494 11.0986 19.748 11.2888 19.2839 11.5089C18.7289 11.7719 18.1008 12.0697 17.2593 12.0697C16.9933 12.0686 16.7283 12.0407 16.4679 11.9863C12.764 11.2276 10.8495 7.92504 10.8307 7.89191C10.7621 7.77119 10.8042 7.61787 10.9249 7.5491C11.0456 7.48032 11.1989 7.52259 11.2677 7.64331L11.2686 7.64474ZM17.6218 15.4441V14.1223L17.9555 14.0148C18.0674 13.9747 18.1677 13.9362 18.251 13.902L18.2575 14.3762L17.6218 15.4441ZM17.6302 15.4772V17.6909L16.9749 18.8976V16.5848L17.6302 15.4772ZM15.2875 19.3697L14.2853 21.0554V24.7783L13.6301 25.9849V22.1573L14.2824 21.0536V14.3823L14.4149 14.4044C14.5761 14.4271 14.7345 14.4402 14.891 14.4506L15.2897 14.4651H15.2969V19.3536L15.9522 18.2454V14.442L16.215 14.4215C16.3602 14.4045 16.497 14.3821 16.6323 14.3587L16.9667 14.2917V16.5459L15.9519 18.2517V21.3298L15.2965 22.5364L15.2969 19.3536L15.2875 19.3697ZM10.9426 26.6759V13.2552C11.0569 13.3358 11.1757 13.4098 11.2985 13.4769L11.6974 13.674C11.7796 13.7098 11.8665 13.747 11.9573 13.783V24.9544L12.6124 23.8461V14.0116L12.6175 14.0134C12.7674 14.0589 12.9219 14.1029 13.0867 14.1452L13.4852 14.2364C13.5312 14.2462 13.5794 14.2553 13.6269 14.2648V22.1616L12.6124 23.8676V28.235L11.9573 29.4419V24.97L10.9426 26.6759ZM9.2723 29.4838V13.6625L9.53702 13.3974L10.2246 12.7055C10.2425 12.7154 10.2662 12.729 10.288 12.7414V27.7778L9.50406 29.0962L9.2723 29.4838ZM9.30311 29.4902V34.6225L8.64794 35.8291V30.5983L9.30311 29.4902ZM10.2868 27.8251L10.9421 26.7168V31.849L10.2868 33.0558V27.8251ZM7.32758 9.18612L10.6699 6.18593C10.7157 6.14438 10.7755 6.12145 10.8375 6.12145C10.9765 6.12181 11.0888 6.23465 11.0886 6.37363C11.0886 6.37793 11.0884 6.38223 11.0883 6.38653C11.0848 6.45315 11.0549 6.51566 11.005 6.56008L7.8065 9.43149C8.18012 10.1361 8.72191 10.7375 9.38406 11.1821C9.50191 11.2553 9.53792 11.4104 9.46466 11.5283C9.39141 11.6461 9.2363 11.6821 9.11845 11.6089C8.32054 11.0773 7.68059 10.3406 7.26579 9.47627C7.22101 9.37633 7.24608 9.25902 7.32758 9.18612ZM7.40764 11.2433C8.10901 11.2433 8.67749 11.8118 8.67749 12.5132C8.67749 13.2146 8.10901 13.783 7.40764 13.783C6.70626 13.783 6.13778 13.2146 6.13778 12.5132C6.1385 11.8123 6.70662 11.2442 7.40764 11.2433ZM8.61749 14.3553V30.5858L8.60997 30.5985L7.15958 33.037C5.13139 29.2323 5.05598 25.2927 5.05527 25.2447C4.8296 20.132 6.8354 16.5221 8.61749 14.3553ZM4.95031 35.5882C4.95049 34.8417 5.55569 34.2365 6.3022 34.2367C7.04871 34.2369 7.65391 34.8421 7.65373 35.5886C7.65355 36.3351 7.04853 36.9401 6.30202 36.9401C5.55587 36.9394 4.95103 36.3345 4.95031 35.5882ZM9.00167 37.5141L6.77737 41.9138C6.73474 41.9986 6.64769 42.0519 6.55277 42.0518C6.51354 42.0518 6.47468 42.0424 6.43957 42.0249C6.31581 41.9627 6.26584 41.8121 6.32799 41.6884C6.32817 41.6878 6.32853 41.6875 6.32871 41.6869L8.55301 37.2874C8.59564 37.2027 8.68251 37.1491 8.77743 37.1493C8.91588 37.1488 9.02854 37.2605 9.02908 37.399C9.02926 37.4391 9.01976 37.4785 9.00167 37.5141ZM10.9819 37.7151C10.9462 37.8034 10.8688 37.8682 10.7755 37.8881C10.6822 37.9078 10.5853 37.8799 10.5167 37.8136C10.5128 37.8098 10.1064 37.4197 8.89869 36.4295C8.77618 36.3292 8.75827 36.1486 8.85875 36.0261C8.95905 35.9036 9.13958 35.8857 9.26209 35.9862C9.92836 36.5319 10.3528 36.8967 10.605 37.1194C11.7475 34.2933 18.8419 16.7367 19.2755 15.4938C19.6473 14.428 20.1691 13.9908 20.5414 13.8119C20.8448 13.6571 21.1982 13.6324 21.5202 13.7433C21.6694 13.7959 21.7477 13.9596 21.695 14.1088C21.6424 14.258 21.4787 14.3363 21.3295 14.2836C21.1509 14.2251 20.9562 14.2412 20.7898 14.3284C20.4017 14.515 20.0557 14.9958 19.8166 15.6824C19.3423 17.0406 11.3229 36.8722 10.9819 37.7151ZM20.6256 17.8722C20.8316 17.8722 20.9987 18.0391 20.9987 18.2453C20.9987 18.4512 20.8318 18.6183 20.6256 18.6183C20.4196 18.6183 20.2525 18.4514 20.2525 18.2453C20.2523 18.0393 20.4196 17.8722 20.6256 17.8722C20.6256 17.872 20.6254 17.8722 20.6256 17.8722ZM19.6362 20.6236C19.6373 20.7622 19.5261 20.8756 19.3874 20.8774H19.3855C19.2479 20.8767 19.1365 20.766 19.1347 20.6284L19.1084 18.3722C19.107 18.2334 19.2184 18.1199 19.3572 18.1185C19.496 18.117 19.6095 18.2284 19.611 18.3672L19.6362 20.6236ZM18.6884 20.9691C18.6882 21.1751 18.5213 21.3418 18.3153 21.3418C18.1094 21.3418 17.9426 21.1747 17.9426 20.9687C17.9428 20.7629 18.1095 20.596 18.3155 20.596C18.5215 20.5957 18.6886 20.7622 18.6891 20.9682C18.6891 20.9686 18.6884 20.9687 18.6884 20.9691ZM16.4118 28.4539C16.6178 28.4537 16.7849 28.6207 16.785 28.8268C16.7852 29.033 16.6183 29.1999 16.4122 29.2001C16.2062 29.2002 16.0391 29.0333 16.0389 28.8272C16.0389 28.827 16.0389 28.8273 16.0389 28.8272C16.0387 28.6212 16.2058 28.4541 16.4118 28.4539ZM12.6001 35.473C12.5137 35.5818 12.3554 35.6 12.2467 35.5135C12.138 35.4272 12.1197 35.2689 12.2062 35.1601L14.3406 32.4727C14.3883 32.4125 14.4608 32.3774 14.5376 32.3776C14.6761 32.3767 14.7891 32.4881 14.79 32.6265C14.7904 32.6844 14.7708 32.7404 14.7347 32.7854L12.6001 35.473ZM14.1042 35.6661C14.1042 35.8721 13.9373 36.039 13.7313 36.039C13.5253 36.039 13.3584 35.8721 13.3584 35.6661C13.3584 35.4601 13.5253 35.2932 13.7313 35.2932C13.9373 35.2932 14.1042 35.46 14.1042 35.6661ZM13.5875 31.6153C13.5873 31.4093 13.7542 31.2422 13.9604 31.242C14.1664 31.2419 14.3335 31.4088 14.3336 31.6149C14.3338 31.8209 14.1669 31.988 13.9607 31.9882C13.9606 31.9882 13.9609 31.9882 13.9607 31.9882C13.7549 31.988 13.5877 31.8211 13.5875 31.6153ZM13.1324 37.894C12.9264 37.8942 12.7593 37.7273 12.7591 37.5211C12.7589 37.315 12.9259 37.148 13.132 37.1479C13.338 37.1477 13.5051 37.3146 13.5053 37.5208C13.5053 37.7267 13.3382 37.8938 13.1324 37.894ZM14.7522 38.3978C14.7336 38.513 14.6254 38.5913 14.5102 38.5726C14.4078 38.5562 14.3326 38.4679 14.3327 38.3642C14.3331 38.3411 14.3372 38.3181 14.3449 38.2963C14.4843 37.5797 14.0164 36.886 13.2998 36.7467C12.59 36.6086 11.9012 37.0665 11.7536 37.7744C11.7515 37.7805 11.749 37.7865 11.7459 37.7923C11.711 37.9033 11.5928 37.9651 11.4817 37.9302C11.394 37.9026 11.3342 37.8213 11.3342 37.7294C11.3342 37.7256 11.3342 37.7221 11.3352 37.7183C11.334 37.7047 11.3347 37.6907 11.3374 37.6773C11.5457 36.7361 12.4774 36.142 13.4186 36.3501C14.3467 36.5556 14.9394 37.4658 14.7522 38.3978ZM15.0671 28.6993C15.2044 28.7016 15.3158 28.8109 15.3209 28.9482L15.3472 31.2347C15.349 31.3731 15.2381 31.4869 15.0997 31.4887C15.0993 31.4887 15.099 31.4887 15.0986 31.4887H15.0959C14.9585 31.4878 14.8471 31.3773 14.8452 31.2399L14.8188 28.9533C14.8178 28.8148 14.9284 28.7012 15.0671 28.6993ZM14.8251 32.1195C14.8253 31.9135 14.9922 31.7468 15.1982 31.7468C15.4041 31.7469 15.5709 31.9139 15.5709 32.1198C15.5707 32.3256 15.404 32.4925 15.198 32.4925C14.9922 32.4924 14.8251 32.3254 14.8251 32.1195ZM15.5141 37.0794C15.5105 37.2157 15.3997 37.3244 15.2634 37.3257H15.2605C15.1212 37.3236 15.0098 37.2087 15.0119 37.0694L15.0943 32.9962C15.099 32.8594 15.2109 32.7506 15.3479 32.7499C15.4873 32.7517 15.5988 32.866 15.597 33.0053C15.597 33.0057 15.597 33.006 15.597 33.0062L15.5141 37.0794ZM16.4184 32.9663C16.2125 32.9663 16.0453 32.7994 16.0453 32.5932C16.0453 32.3872 16.2123 32.2201 16.4184 32.2201C16.6246 32.2201 16.7915 32.3871 16.7915 32.593C16.7913 32.7988 16.6242 32.9663 16.4184 32.9663ZM18.4627 29.0335L15.8936 31.6697C15.7967 31.7691 15.6375 31.7713 15.5381 31.6742C15.4387 31.5773 15.4366 31.4181 15.5336 31.3187L18.1033 28.6823C18.2002 28.5829 18.3592 28.5807 18.4588 28.6776C18.5582 28.7745 18.5603 28.9335 18.4634 29.0331L18.4627 29.0335ZM17.4601 27.8147C16.7639 27.8147 16.1996 27.2503 16.1996 26.5541C16.1996 25.858 16.7639 25.2936 17.4601 25.2936C18.1563 25.2936 18.7206 25.858 18.7206 26.5541C18.7196 27.2498 18.1556 27.8138 17.4601 27.8147ZM18.3866 24.6544C18.1806 24.6545 18.0135 24.4876 18.0134 24.2816C18.0132 24.0757 18.1801 23.9086 18.3863 23.9084C18.5922 23.9082 18.7593 24.0751 18.7595 24.2813C18.7593 24.4869 18.5924 24.6542 18.3866 24.6544ZM19.0244 22.1747L17.1234 24.5682C17.0371 24.6769 16.8789 24.6952 16.77 24.6089C16.6613 24.5225 16.643 24.3644 16.7293 24.2555L18.6304 21.8618C18.678 21.8016 18.7505 21.7667 18.8274 21.7668C18.9658 21.7659 19.0788 21.8775 19.0796 22.016C19.0799 22.0736 19.0604 22.1297 19.0244 22.1747ZM19.0871 21.4341C19.0869 21.2281 19.2538 21.061 19.46 21.0608C19.6661 21.0606 19.8331 21.2275 19.8332 21.4337C19.8334 21.6398 19.6665 21.8068 19.4603 21.807C19.4602 21.807 19.4605 21.807 19.4603 21.807C19.2544 21.8068 19.0869 21.64 19.0871 21.4341ZM19.8212 26.1678C19.8177 26.3041 19.7068 26.4128 19.5705 26.4141H19.5674C19.4281 26.4117 19.3169 26.2971 19.3189 26.1578L19.3935 22.4653C19.3941 22.4462 19.3969 22.4272 19.4018 22.4086V22.3855C19.4039 22.3147 19.458 22.2563 19.5284 22.2486C19.5646 22.2296 19.6049 22.2194 19.6457 22.2193C19.7852 22.2201 19.8974 22.3341 19.8965 22.4734C19.8965 22.4741 19.8965 22.4747 19.8965 22.4754L19.8212 26.1678ZM20.5808 22.2553C20.3749 22.2554 20.2078 22.0885 20.2076 21.8824C20.2074 21.6762 20.3743 21.5093 20.5805 21.5091C20.7864 21.5089 20.9535 21.6758 20.9535 21.882C20.9532 22.0876 20.7864 22.2549 20.5808 22.2553ZM22.7621 18.503L20.1925 21.1392C20.0962 21.2387 19.9373 21.241 19.8381 21.1444C19.8379 21.1443 19.8375 21.1439 19.8374 21.1437C19.77 21.0796 19.7449 20.9831 19.7723 20.8942C19.7679 20.8529 19.7818 20.8115 19.8107 20.7814L22.3803 18.1451C22.4038 18.1217 22.4347 18.1074 22.4679 18.1047C22.5907 18.0407 22.7421 18.0885 22.806 18.2114C22.856 18.3078 22.8383 18.4254 22.7621 18.503ZM21.7855 17.5057C21.0769 17.5059 20.5026 16.9315 20.5026 16.2232C20.5024 15.5146 21.0768 14.9402 21.7851 14.9402C22.4937 14.9401 23.0681 15.5144 23.0681 16.2228C23.0681 16.2226 23.0681 16.223 23.0681 16.2228C23.067 16.9306 22.4931 17.5048 21.7855 17.5057Z"
      fill="#A39161" />
    <path
      d="M33.3276 0.00145118C33.1796 7.79837 33.1006 15.8129 33.1006 24C33.1006 32.1871 33.1796 40.2016 33.3276 47.9986C33.3914 47.9986 33.4545 48 33.5184 48C33.5822 48 33.6453 47.9986 33.7091 47.9986C33.8571 40.2016 33.9361 32.1871 33.9361 24C33.9361 15.8129 33.8571 7.79837 33.7091 0.00145118C33.6453 0.00145118 33.5822 0 33.5184 0C33.4545 0 33.3914 0.00145118 33.3276 0.00145118Z"
      fill="#004D44" />
    <path
      d="M42.9365 21.0744C43.3421 20.9529 43.5653 20.7403 43.8691 19.9399L45.8148 14.7916L46.7065 14.6701L48.7737 20.4665C48.9157 20.8618 49.0979 21.0038 49.3417 21.0646V21.3178H46.7474V21.0745C47.1932 20.953 47.396 20.872 47.396 20.5176C47.3894 20.389 47.3619 20.2623 47.3147 20.1424L47.0004 19.2102H44.8726L44.5992 20.0209C44.5389 20.1915 44.4982 20.3683 44.4776 20.548C44.4776 20.8316 44.7609 20.9938 45.2067 21.0747V21.318H42.9367L42.9365 21.0744ZM45.0751 18.602H46.7877L45.9363 16.0886L45.0751 18.602Z"
      fill="#004D44" />
    <path
      d="M49.5811 21.0745C50.0673 20.953 50.1286 20.7908 50.1484 20.1829L50.2296 18.1157V18.0344C50.2296 17.548 50.1484 17.2643 49.6623 17.1022V16.8588L51.2428 16.5751L51.4053 16.697V17.3049C51.9323 16.94 52.4593 16.5751 53.0267 16.5751C53.8371 16.5751 54.2829 16.94 54.2829 17.7914V19.9801C54.2829 20.7908 54.3238 20.953 54.7696 21.0745V21.3179H52.4594V21.0745C52.9456 20.953 52.9963 20.7908 53.0267 20.1829L53.108 18.3587V18.2778C53.108 17.6292 52.8642 17.3858 52.2566 17.3858C51.9571 17.3957 51.6647 17.4793 51.4053 17.6292V19.9801C51.4053 20.7502 51.4455 20.953 51.8915 21.0745V21.3179H49.5812L49.5811 21.0745Z"
      fill="#004D44" />
    <path
      d="M57.3594 21.0744C58.0482 20.9126 58.2107 20.7099 58.2107 19.9399V16.2508C58.2107 15.4806 58.1295 15.1564 57.4809 14.913V14.67L59.2648 14.7915C59.6923 14.7091 60.1267 14.6684 60.562 14.67C61.8181 14.67 62.6292 15.2779 62.6292 16.2914C62.6292 17.1021 62.1022 17.7507 61.2911 18.1965L62.7507 20.3043C63.2982 21.0949 63.6833 21.5205 64.3722 21.6421V21.8041C64.1099 21.8872 63.8361 21.9282 63.5611 21.9257C62.7104 21.9257 61.9806 21.5812 61.2508 20.3449L60.1966 18.5614C60.0778 18.5928 59.9549 18.6065 59.8321 18.602C59.7228 18.6011 59.614 18.5875 59.5079 18.5614V19.9295C59.5079 20.7501 59.751 20.9126 60.4405 21.0744V21.3178H57.3594L57.3594 21.0744ZM60.3995 18.0749C60.5781 18.0733 60.7556 18.0461 60.9265 17.9941C61.0824 17.8177 61.202 17.6124 61.2785 17.3898C61.355 17.1673 61.3869 16.9318 61.3723 16.6969C61.3723 15.6834 60.6425 15.197 59.5079 15.1158V17.8722C59.7828 18.0149 60.0898 18.0848 60.3995 18.0749Z"
      fill="#004D44" />
    <path
      d="M66.7191 16.5751C68.0163 16.5751 68.8677 17.2237 68.8677 18.7642C68.8677 20.5478 67.7323 21.4394 66.3546 21.4394C65.0575 21.4394 64.2061 20.7908 64.2061 19.2507C64.2061 17.4671 65.3407 16.5751 66.7191 16.5751ZM67.5302 19.0885C67.5302 17.7507 67.1247 17.0615 66.5164 17.0615C65.8678 17.0615 65.5435 17.7507 65.5435 18.9263C65.5435 20.2641 65.949 20.953 66.5575 20.953C67.2059 20.9528 67.5302 20.2641 67.5302 19.0885Z"
      fill="#004D44" />
    <path
      d="M69.3521 21.0744C69.8388 20.9529 69.8996 20.7907 69.9201 20.1828L70.0006 18.1156V18.0343C70.0006 17.5479 69.9201 17.2642 69.4333 17.1021V16.8587L71.0547 16.575L71.2575 16.6969C71.2172 17.021 71.1763 17.71 71.1763 18.0749V19.98C71.1763 20.7501 71.2575 20.9529 71.7033 21.0744V21.3178H69.3521V21.0744ZM69.8388 14.7915C69.8215 14.6355 69.8519 14.478 69.926 14.3397C70.0001 14.2014 70.1145 14.0889 70.254 14.017C70.3935 13.9451 70.5515 13.9173 70.7072 13.9372C70.8628 13.957 71.0087 14.0237 71.1257 14.1284C71.2426 14.233 71.325 14.3707 71.362 14.5232C71.3989 14.6757 71.3888 14.8358 71.3327 14.9824C71.2767 15.1289 71.1775 15.2551 71.0483 15.344C70.919 15.433 70.7658 15.4806 70.6089 15.4806C70.5123 15.4895 70.415 15.4784 70.3229 15.448C70.2308 15.4176 70.146 15.3685 70.0737 15.3038C70.0014 15.2392 69.9433 15.1603 69.9029 15.0721C69.8625 14.984 69.8407 14.8884 69.8388 14.7915Z"
      fill="#004D44" />
    <path
      d="M72.188 21.0745C72.6748 20.953 72.7355 20.7908 72.756 20.1829L72.8365 18.1157V18.0344C72.8365 17.548 72.756 17.2643 72.2692 17.1022V16.8588L73.8504 16.5751L74.0122 16.697V17.3049C74.5392 16.94 75.0663 16.5751 75.6336 16.5751C76.4447 16.5751 76.8905 16.94 76.8905 17.7914V19.9801C76.8905 20.7908 76.9308 20.953 77.3767 21.0745V21.3179H75.0665V21.0745C75.5533 20.953 75.6034 20.7908 75.6338 20.1829L75.7151 18.3587V18.2778C75.7151 17.6292 75.472 17.3858 74.8637 17.3858C74.5642 17.3958 74.2719 17.4794 74.0124 17.6292V19.9801C74.0124 20.7502 74.0533 20.953 74.4991 21.0745V21.3179H72.1882L72.188 21.0745Z"
      fill="#004D44" />
    <path
      d="M77.9009 21.0745C78.3871 20.953 78.4484 20.7908 78.4682 20.1829L78.5494 18.1157V18.0344C78.5494 17.548 78.4682 17.2643 77.9821 17.1022V16.8588L79.5626 16.5751L79.725 16.697V17.3049C80.2521 16.94 80.7792 16.5751 81.3465 16.5751C82.1569 16.5751 82.6027 16.94 82.6027 17.7914V19.9801C82.6027 20.7908 82.6437 20.953 83.0895 21.0745V21.3179H80.7792V21.0745C81.2654 20.953 81.3161 20.7908 81.3465 20.1829L81.4277 18.3587V18.2778C81.4277 17.6292 81.184 17.3858 80.5764 17.3858C80.2769 17.3956 79.9845 17.4793 79.725 17.6292V19.9801C79.725 20.7502 79.7653 20.953 80.2113 21.0745V21.3179H77.9009V21.0745Z"
      fill="#004D44" />
    <path
      d="M89.0846 14.6699C90.9491 14.6699 92.3678 15.9264 92.3678 17.994C92.3678 20.0206 91.0706 21.4392 89.0846 21.4392C87.1389 21.4392 85.8008 20.1421 85.8008 18.0342C85.8006 15.967 87.0977 14.6699 89.0846 14.6699ZM89.2464 20.9935C90.3005 20.9935 90.9491 19.8991 90.9491 18.1966C90.9491 16.494 90.2193 15.1159 88.9221 15.1159C87.868 15.1159 87.2195 16.1294 87.2195 17.8723C87.2193 19.5748 87.9493 20.9935 89.2464 20.9935Z"
      fill="#004D44" />
    <path
      d="M92.9302 21.0744C93.417 20.9529 93.4777 20.7907 93.4982 20.1828L93.5788 18.1156V18.0343C93.5788 17.5479 93.4982 17.2642 93.0114 17.1021V16.8587L94.6329 16.575L94.8356 16.6969C94.7954 17.021 94.7544 17.71 94.7544 18.0749V19.98C94.7544 20.7501 94.8356 20.9529 95.2814 21.0744V21.3178H92.9302V21.0744ZM93.417 14.7915C93.3996 14.6355 93.43 14.478 93.5041 14.3397C93.5783 14.2014 93.6926 14.0889 93.8321 14.017C93.9716 13.9451 94.1296 13.9173 94.2853 13.9372C94.4409 13.957 94.5869 14.0237 94.7038 14.1284C94.8207 14.233 94.9031 14.3707 94.9401 14.5231C94.9771 14.6756 94.9669 14.8358 94.9109 14.9823C94.8549 15.1289 94.7557 15.255 94.6264 15.344C94.4972 15.433 94.344 15.4806 94.1871 15.4806C94.0905 15.4895 93.9931 15.4784 93.901 15.448C93.8089 15.4176 93.7241 15.3685 93.6518 15.3038C93.5796 15.2392 93.5214 15.1603 93.481 15.0721C93.4406 14.984 93.4188 14.8884 93.417 14.7915Z"
      fill="#004D44" />
    <path
      d="M98.1994 16.5751C98.465 16.5702 98.7283 16.6256 98.9695 16.7372V15.9671C98.9695 14.8727 98.7264 14.7106 98.1994 14.5887V14.3051L100.024 14.1027L100.267 14.2242C100.226 14.9943 100.145 16.1293 100.145 16.6969V19.98C100.145 20.6692 100.348 20.7907 100.712 20.9529V21.1963L99.1722 21.4393L98.9695 21.3178V20.872C98.621 21.2133 98.1595 21.4152 97.6723 21.4394C96.6182 21.4394 95.8481 20.7099 95.8481 19.1694C95.8481 17.5684 96.862 16.5751 98.1994 16.5751ZM98.9695 20.5478V18.146C98.9695 17.4264 98.6148 17.0613 98.1591 17.0613C97.5105 17.0613 97.105 17.7099 97.105 18.8449C97.105 20.1421 97.632 20.6691 98.3611 20.6691C98.5698 20.6679 98.7763 20.6268 98.9695 20.5478Z"
      fill="#004D44" />
    <path
      d="M103.548 16.5751C104.561 16.5751 105.128 17.1022 105.128 17.9941C105.134 18.2532 105.106 18.512 105.047 18.7642H102.412V18.967C102.412 20.2235 103.061 20.6693 103.791 20.6693C104.184 20.6602 104.565 20.5331 104.885 20.3044L105.088 20.3856C104.923 20.7228 104.661 21.0032 104.336 21.1909C104.011 21.3786 103.638 21.4651 103.264 21.4394C102.088 21.4394 101.196 20.71 101.196 19.1287C101.196 17.5886 102.209 16.5751 103.548 16.5751ZM102.452 18.2372H103.872L103.993 18.1157V17.9129C103.993 17.4265 103.831 17.0615 103.385 17.0615C102.939 17.0615 102.585 17.4568 102.452 18.2372Z"
      fill="#004D44" />
    <path
      d="M106.868 19.2507L108.124 18.8045V17.7811C108.124 17.3455 107.962 17.1428 107.638 17.1428C107.313 17.1428 107.03 17.3858 106.706 18.3587C106.179 18.3184 105.936 18.1966 105.936 17.9129C105.936 17.2442 107.273 16.5751 108.246 16.5751C109.016 16.5751 109.34 16.8588 109.34 17.548V17.6292L109.259 19.8992V19.9801C109.259 20.6287 109.422 20.8315 109.989 21.0342V21.237C109.65 21.3582 109.294 21.4264 108.935 21.4394C108.761 21.4574 108.586 21.4148 108.441 21.3188C108.295 21.2228 108.186 21.0794 108.134 20.9127H108.124C107.802 21.2384 107.367 21.427 106.908 21.4394C106.179 21.4394 105.692 21.0745 105.692 20.4259C105.692 19.7773 106.219 19.4838 106.868 19.2507ZM108.084 20.6287L108.115 19.21L107.476 19.4937C107.06 19.6763 106.868 19.8586 106.868 20.1829C106.863 20.2648 106.876 20.3468 106.905 20.4234C106.935 20.5 106.98 20.5694 107.039 20.627C107.097 20.6845 107.167 20.7289 107.245 20.7572C107.322 20.7854 107.404 20.7969 107.486 20.7908C107.696 20.7908 107.903 20.7349 108.084 20.6287Z"
      fill="#004D44" />
    <path
      d="M112.662 16.5751C113.553 16.5751 114.202 17.1022 114.202 17.6699C114.202 18.0344 114 18.2372 113.716 18.2372C113.572 18.237 113.431 18.1948 113.31 18.1157C113.027 17.2643 112.946 17.0615 112.54 17.0615C112.135 17.0615 111.567 17.5074 111.567 18.8451C111.567 20.1828 112.256 20.6693 112.905 20.6693C113.269 20.6749 113.625 20.561 113.919 20.3452L114.121 20.426C113.954 20.7497 113.697 21.0179 113.38 21.1978C113.063 21.3777 112.701 21.4617 112.338 21.4395C111.243 21.4395 110.352 20.7101 110.352 19.0886C110.352 17.4672 111.446 16.5751 112.662 16.5751Z"
      fill="#004D44" />
    <path
      d="M117.403 21.0745C117.889 20.9529 117.94 20.7908 117.97 20.1828L118.052 18.3587V18.2777C118.052 17.6292 117.808 17.3858 117.2 17.3858C116.901 17.3958 116.608 17.4794 116.349 17.6292V19.9801C116.349 20.7502 116.43 20.9529 116.835 21.0745V21.3178H114.525V21.0745C115.012 20.9529 115.072 20.7908 115.092 20.1828L115.173 18.1156V15.5616C115.173 15.0754 115.092 14.7915 114.606 14.5888V14.3457L116.228 14.1027L116.471 14.2242C116.389 15.1158 116.349 16.2914 116.349 16.6969V17.3049C116.876 16.9399 117.403 16.5751 117.971 16.5751C118.781 16.5751 119.227 16.9399 119.227 17.7913V19.98C119.227 20.7907 119.268 20.9529 119.714 21.0744V21.3178H117.403V21.0745Z"
      fill="#004D44" />
    <path
      d="M121.493 19.2507L122.749 18.8045V17.7811C122.749 17.3455 122.587 17.1428 122.263 17.1428C121.938 17.1428 121.655 17.3858 121.331 18.3587C120.804 18.3184 120.561 18.1966 120.561 17.9129C120.561 17.2442 121.898 16.5751 122.871 16.5751C123.641 16.5751 123.965 16.8588 123.965 17.548V17.6292L123.884 19.8992V19.9801C123.884 20.6287 124.047 20.8315 124.614 21.0342V21.237C124.275 21.3582 123.919 21.4264 123.56 21.4394C123.386 21.4574 123.212 21.4148 123.066 21.3188C122.92 21.2228 122.812 21.0794 122.759 20.9127H122.749C122.427 21.2384 121.992 21.427 121.534 21.4394C120.804 21.4394 120.317 21.0745 120.317 20.4259C120.317 19.7773 120.844 19.4838 121.493 19.2507ZM122.709 20.6287L122.74 19.21L122.101 19.4937C121.685 19.6763 121.493 19.8586 121.493 20.1829C121.488 20.2648 121.501 20.3468 121.53 20.4234C121.56 20.5 121.605 20.5694 121.664 20.627C121.722 20.6845 121.792 20.7289 121.87 20.7572C121.947 20.7854 122.029 20.7969 122.111 20.7908C122.321 20.7908 122.528 20.7349 122.709 20.6287Z"
      fill="#004D44" />
    <path
      d="M124.936 21.0745C125.422 20.953 125.483 20.7908 125.504 20.1829L125.584 18.1157V18.0344C125.584 17.548 125.504 17.2643 125.017 17.1022V16.8588L126.638 16.5751L126.841 16.697C126.801 17.0211 126.76 17.7101 126.76 18.075V19.9801C126.76 20.7502 126.841 20.953 127.287 21.0745V21.3179H124.936V21.0745ZM125.422 14.7916C125.405 14.6356 125.435 14.4781 125.51 14.3398C125.584 14.2015 125.698 14.089 125.838 14.0171C125.977 13.9453 126.135 13.9175 126.291 13.9373C126.446 13.9572 126.592 14.0239 126.709 14.1285C126.826 14.2332 126.908 14.3708 126.945 14.5233C126.982 14.6758 126.972 14.8359 126.916 14.9825C126.86 15.129 126.761 15.2551 126.632 15.3441C126.503 15.4331 126.349 15.4807 126.192 15.4807C126.096 15.4896 125.999 15.4785 125.906 15.4481C125.814 15.4177 125.73 15.3686 125.657 15.3039C125.585 15.2393 125.527 15.1604 125.486 15.0722C125.446 14.9841 125.424 14.8885 125.422 14.7916Z"
      fill="#004D44" />
    <path
      d="M127.895 19.737L128.138 19.6155L128.502 20.2235C128.6 20.4457 128.758 20.6359 128.959 20.7721C129.16 20.9083 129.395 20.9851 129.637 20.9935C129.732 21.0019 129.827 20.9901 129.917 20.9589C130.006 20.9278 130.088 20.878 130.157 20.8129C130.226 20.7478 130.28 20.6688 130.316 20.5812C130.352 20.4935 130.37 20.3992 130.367 20.3045C130.367 19.9803 130.195 19.7774 129.718 19.575L128.948 19.2509C128.68 19.1723 128.446 19.0056 128.284 18.7775C128.122 18.5495 128.042 18.2736 128.056 17.9944C128.056 17.143 128.826 16.5753 129.881 16.5753C130.311 16.5738 130.738 16.6565 131.137 16.8187L131.339 17.9131L131.096 18.0346C130.691 17.4673 130.326 17.0215 129.759 17.0215C129.676 17.0108 129.592 17.0173 129.511 17.0404C129.431 17.0636 129.356 17.103 129.292 17.1561C129.227 17.2093 129.174 17.2751 129.136 17.3495C129.098 17.4239 129.075 17.5054 129.069 17.5888C129.069 17.8725 129.161 18.065 129.596 18.2374L130.408 18.5615C130.703 18.636 130.965 18.8091 131.149 19.0523C131.334 19.2955 131.429 19.5943 131.421 19.8993C131.421 20.9128 130.61 21.4395 129.516 21.4395C129.033 21.4319 128.554 21.3499 128.097 21.1964L127.895 19.737Z"
      fill="#004D44" />
    <path
      d="M43.2207 31.6374C44.0318 31.5159 44.1936 31.3132 44.1936 30.502V26.8133C44.1936 25.9217 44.0721 25.7599 43.4235 25.6377V25.3946C44.1741 25.276 44.9336 25.2218 45.6935 25.2328C47.9232 25.2328 49.6252 26.3674 49.6252 28.516C49.6252 30.7047 48.328 31.9616 46.3018 31.9616C45.8962 31.9616 45.1057 31.8803 44.5179 31.8803H43.2207V31.6374ZM46.3421 31.5561C47.8008 31.5561 48.6933 30.4618 48.6933 28.6376C48.6933 26.5703 47.2337 25.5572 45.2066 25.5572H45.0451V30.4215C45.0451 31.2727 45.3692 31.5561 46.3421 31.5561Z"
      fill="#004D44" />
    <path
      d="M52.7827 27.1376C53.7146 27.1376 54.2416 27.7056 54.2416 28.4758C54.2346 28.7072 54.2076 28.9377 54.1611 29.1646H51.3231V29.4486C51.3231 30.7458 51.8911 31.3131 52.7827 31.3131C53.2341 31.3161 53.6745 31.1739 54.0389 30.9075L54.2014 30.9485C54.0462 31.2757 53.7982 31.5499 53.4883 31.7372C53.1784 31.9245 52.8202 32.0166 52.4584 32.0019C51.3231 32.0019 50.5127 31.1506 50.5127 29.6916C50.5127 28.1104 51.4856 27.1376 52.7827 27.1376ZM51.3739 28.759H53.35L53.4715 28.6375V28.4347C53.4799 28.3172 53.4622 28.1994 53.4198 28.0895C53.3773 27.9797 53.3112 27.8806 53.226 27.7992C53.1408 27.7179 53.0387 27.6564 52.927 27.6191C52.8154 27.5818 52.6968 27.5696 52.5799 27.5834C52.0734 27.5834 51.5563 27.9995 51.3739 28.759Z"
      fill="#004D44" />
    <path
      d="M55.6188 28.8805C55.6188 28.0497 55.517 27.8271 55.0507 27.6243V27.4216L56.3076 27.1376L56.3888 27.2188V27.8271C56.5656 27.6213 56.7827 27.4539 57.0267 27.3353C57.2707 27.2167 57.5365 27.1494 57.8075 27.1376C58.8616 27.1376 59.6317 27.9077 59.6317 29.3673C59.6317 30.9484 58.6177 32.0018 57.2804 32.0018C56.9713 32.0069 56.6654 31.9373 56.3888 31.7991H56.3789L56.4291 32.9747C56.4496 33.5427 56.6319 33.7045 57.3617 33.826V34.0691H54.8486V33.826C55.4563 33.7448 55.6188 33.5526 55.6188 32.7924V28.8805ZM56.3888 28.0701V30.4214C56.3888 31.1102 56.713 31.597 57.3207 31.597C58.1318 31.597 58.7804 30.7859 58.7804 29.57C58.7804 28.3541 58.2533 27.7861 57.2804 27.7861C56.9621 27.7933 56.6526 27.8918 56.3888 28.0701Z"
      fill="#004D44" />
    <path
      d="M61.5745 29.8944L62.9932 29.3673V28.516C62.9932 27.9077 62.7502 27.6647 62.2634 27.6647C61.6148 27.6647 61.412 28.1515 61.169 28.8806C60.7635 28.8403 60.5607 28.7188 60.5607 28.4348C60.5607 27.9485 61.8176 27.1376 62.8717 27.1376C62.9979 27.1218 63.1261 27.1351 63.2464 27.1763C63.3667 27.2176 63.476 27.2859 63.5659 27.3758C63.6558 27.4658 63.724 27.5752 63.7652 27.6955C63.8063 27.8158 63.8195 27.944 63.8036 28.0702V28.1515L63.723 30.6645V30.7458C63.723 31.3131 63.8036 31.4346 64.4931 31.6373V31.8401C64.206 31.9403 63.9049 31.9949 63.6008 32.0019C63.5154 32.0083 63.4297 31.9976 63.3485 31.9704C63.2674 31.9432 63.1925 31.9 63.1283 31.8433C63.0641 31.7867 63.0119 31.7178 62.9747 31.6407C62.9376 31.5636 62.9162 31.4798 62.912 31.3943C62.7279 31.5849 62.5075 31.7369 62.2639 31.8412C62.0203 31.9455 61.7583 32.0002 61.4933 32.0019C60.8447 32.0019 60.3989 31.6777 60.3989 31.0291C60.3989 30.4617 60.8546 30.1579 61.5745 29.8944ZM62.912 31.1506L62.9833 29.7425L61.9794 30.1373C61.453 30.3499 61.2503 30.5428 61.2503 30.9074C61.2503 31.2726 61.5336 31.4344 61.8988 31.4344C62.2551 31.4272 62.6038 31.3295 62.912 31.1506Z"
      fill="#004D44" />
    <path
      d="M64.9766 31.6375C65.5439 31.5159 65.6046 31.3534 65.6251 30.7459L65.7057 28.6786V28.5974C65.7399 28.3945 65.7019 28.186 65.5982 28.0082C65.4946 27.8304 65.3318 27.6947 65.1383 27.6245V27.4218L66.3542 27.1378L66.4764 27.219V28.2731C67.2056 27.3306 67.4493 27.1787 67.8542 27.1787C67.9082 27.1753 67.9624 27.1835 68.0131 27.2026C68.0638 27.2218 68.1098 27.2515 68.1482 27.2897C68.1865 27.328 68.2163 27.374 68.2355 27.4247C68.2547 27.4753 68.263 27.5295 68.2597 27.5836C68.2459 27.8707 68.1311 28.1437 67.9355 28.3543C67.7116 28.2303 67.4616 28.1608 67.2057 28.1516C66.9422 28.1516 66.6992 28.3338 66.4766 28.7288V30.5431C66.4766 31.3944 66.6787 31.5159 67.4495 31.6375V31.8805H64.9767L64.9766 31.6375Z"
      fill="#004D44" />
    <path
      d="M69.2712 28.0702L68.7441 27.7057V27.5029C69.2515 27.2249 69.6299 26.7593 69.7983 26.2057L70.0823 26.2863L70.0413 27.3814L71.1767 27.3001C71.2119 27.2939 71.248 27.2955 71.2825 27.3049C71.317 27.3143 71.349 27.3313 71.3762 27.3545C71.4033 27.3777 71.425 27.4067 71.4396 27.4394C71.4542 27.472 71.4614 27.5074 71.4607 27.5432C71.4607 27.7862 71.2982 27.9077 71.0451 27.9077H70.0411V30.543C70.0411 31.2318 70.2036 31.4749 70.6494 31.4749C70.9379 31.4757 71.2201 31.3912 71.4605 31.2318L71.5411 31.4346C71.3789 31.6175 71.1789 31.763 70.9549 31.861C70.7309 31.9589 70.4883 32.007 70.2439 32.0019C69.5551 32.0019 69.17 31.6777 69.1905 30.9075L69.2712 28.0702Z"
      fill="#004D44" />
    <path
      d="M71.9858 31.6375C72.5532 31.516 72.6139 31.3535 72.6344 30.7459L72.7151 28.6785V28.5973C72.7493 28.3944 72.7113 28.1859 72.6076 28.0081C72.504 27.8303 72.3412 27.6946 72.1478 27.6244V27.4217L73.3637 27.1376L73.4859 27.2189V27.8675C74.256 27.3404 74.6608 27.1376 75.2288 27.1376C75.4703 27.1129 75.7119 27.184 75.9015 27.3357C76.091 27.4875 76.2133 27.7076 76.242 27.9487C76.9718 27.4217 77.4578 27.1376 78.0259 27.1376C78.755 27.1376 79.0793 27.5835 79.0793 28.3542V30.543C79.0793 31.3131 79.0793 31.5158 79.7688 31.6374V31.8804H77.5391V31.6375C78.1064 31.516 78.1976 31.3535 78.228 30.7459L78.3092 28.8807V28.8002C78.3092 28.0703 78.0662 27.7861 77.4988 27.7861C77.0598 27.819 76.6385 27.9733 76.2822 28.2319V30.5429C76.2822 31.313 76.2822 31.5158 76.9718 31.6373V31.8803H74.742V31.6375C75.3093 31.516 75.4012 31.3535 75.4316 30.7459L75.5121 28.8807V28.8002C75.5121 28.0703 75.2691 27.7861 74.7017 27.7861C74.2692 27.785 73.8461 27.9121 73.4859 28.1514V30.5429C73.4859 31.313 73.4858 31.5158 74.1747 31.6373V31.8803H71.9859L71.9858 31.6375Z"
      fill="#004D44" />
    <path
      d="M82.7227 27.1376C83.6553 27.1376 84.1823 27.7056 84.1823 28.4758C84.1753 28.7073 84.1481 28.9378 84.1011 29.1646H81.2637V29.4486C81.2637 30.7458 81.831 31.3131 82.7226 31.3131C83.1742 31.316 83.6148 31.1738 83.9795 30.9075L84.1413 30.9485C83.9861 31.2757 83.7382 31.5501 83.4283 31.7374C83.1183 31.9247 82.7602 32.0167 82.3984 32.0019C81.2638 32.0019 80.4526 31.1506 80.4526 29.6916C80.4527 28.1104 81.4255 27.1376 82.7227 27.1376ZM81.3146 28.759H83.2907L83.4122 28.6375V28.4347C83.4206 28.3172 83.4029 28.1993 83.3604 28.0894C83.3179 27.9795 83.2517 27.8804 83.1664 27.799C83.0812 27.7177 82.979 27.6562 82.8673 27.6189C82.7555 27.5817 82.6369 27.5695 82.5199 27.5834C82.0133 27.5834 81.4969 27.9995 81.3146 28.759Z"
      fill="#004D44" />
    <path
      d="M84.9087 31.6375C85.476 31.5159 85.5375 31.3534 85.5573 30.7459L85.6385 28.6786V28.5974C85.6385 28.1106 85.517 27.7863 85.0712 27.6245V27.4218L86.2871 27.1378L86.4086 27.219V27.8676C87.1787 27.3405 87.5842 27.1378 88.1515 27.1378C88.8813 27.1378 89.2057 27.5836 89.2057 28.3543V30.5431C89.2057 31.3132 89.2057 31.5159 89.8945 31.6375V31.8805H87.6655V31.6375C88.2328 31.5159 88.3239 31.3534 88.3543 30.7459L88.4355 28.8807V28.8001C88.4355 28.0703 88.1925 27.7861 87.6245 27.7861C87.192 27.7852 86.769 27.9123 86.4086 28.1514V30.5429C86.4086 31.313 86.4086 31.5157 87.0975 31.6372V31.8803H84.9087V31.6375Z"
      fill="#004D44" />
    <path
      d="M91.027 28.0702L90.5 27.7057V27.5029C91.0074 27.2249 91.3858 26.7593 91.5541 26.2057L91.8381 26.2863L91.7972 27.3814L92.9325 27.3001C92.9677 27.2939 93.0038 27.2955 93.0383 27.3049C93.0728 27.3143 93.1048 27.3313 93.132 27.3545C93.1591 27.3777 93.1808 27.4067 93.1954 27.4394C93.21 27.472 93.2172 27.5074 93.2165 27.5432C93.2165 27.7862 93.054 27.9077 92.8009 27.9077H91.797V30.543C91.797 31.2318 91.9595 31.4749 92.4053 31.4749C92.6937 31.4757 92.9759 31.3912 93.2163 31.2318L93.2969 31.4346C93.1347 31.6175 92.9347 31.763 92.7107 31.861C92.4868 31.9589 92.2442 32.007 91.9998 32.0019C91.3109 32.0019 90.9259 31.6777 90.9463 30.9075L91.027 28.0702Z"
      fill="#004D44" />
    <path
      d="M98.2397 27.1376C99.4153 27.1376 100.185 27.9077 100.185 29.327C100.185 30.9484 99.2125 32.0018 97.7528 32.0018C96.5772 32.0018 95.8071 31.2317 95.8071 29.8131C95.8071 28.1917 96.78 27.1376 98.2397 27.1376ZM99.2938 29.6513C99.2938 28.3131 98.807 27.5431 97.9966 27.5431C97.2258 27.5431 96.6995 28.3132 96.6995 29.4888C96.6995 30.8262 97.1857 31.597 97.9966 31.597C98.7667 31.597 99.2938 30.8262 99.2938 29.6513Z"
      fill="#004D44" />
    <path
      d="M100.871 31.6374C101.439 31.5562 101.601 31.3133 101.601 30.5431V28.1515L100.953 27.7459V27.5834L101.601 27.209V27.1376C101.601 25.4357 102.574 24.6649 103.75 24.6649C104.56 24.6649 104.884 24.9489 104.884 25.2732C104.889 25.3731 104.865 25.4722 104.815 25.5586C104.764 25.645 104.69 25.7149 104.601 25.76C104.074 25.2732 103.79 25.0704 103.425 25.0704C102.938 25.0704 102.411 25.476 102.411 26.7328V27.3708L103.547 27.3001C103.582 27.2939 103.618 27.2955 103.652 27.3049C103.687 27.3143 103.719 27.3313 103.746 27.3545C103.773 27.3777 103.795 27.4067 103.81 27.4393C103.824 27.472 103.831 27.5074 103.831 27.5432C103.831 27.8272 103.628 27.9077 103.384 27.9077H102.411L102.452 30.543C102.462 31.3131 102.604 31.5158 103.465 31.6373V31.8804H100.871L100.871 31.6374Z"
      fill="#004D44" />
    <path
      d="M105.976 31.6373C106.747 31.5158 106.909 31.3132 106.909 30.502V26.8542C106.909 26.0029 106.787 25.7189 106.179 25.5973V25.3543H110.476L110.638 26.8542L110.436 26.9348C110.112 26.0841 109.666 25.8002 109.017 25.7598L107.76 25.6786V28.3542L108.733 28.3132C109.503 28.2828 109.666 28.1514 109.787 27.5028H109.99V29.6103H109.787C109.666 28.8805 109.503 28.7894 108.733 28.759L107.76 28.7187V30.5019C107.76 31.2522 107.963 31.4748 108.814 31.4748C109.827 31.4748 110.314 31.1506 110.8 30.1374L111.003 30.2186L110.598 31.8803H105.976L105.976 31.6373Z"
      fill="#004D44" />
    <path
      d="M114.16 27.1376C114.47 27.1329 114.775 27.2024 115.052 27.3403V26.489C115.052 25.3946 114.809 25.2328 114.201 25.1113V24.8675L115.782 24.6647L115.944 24.787C115.903 25.557 115.822 26.6917 115.822 27.259V30.5428C115.822 31.2317 115.944 31.3532 116.511 31.5157V31.7185L115.255 32.0018L115.052 31.8802V31.3532C114.889 31.5517 114.685 31.7125 114.454 31.8245C114.223 31.9365 113.97 31.997 113.714 32.0018C112.619 32.0018 111.809 31.2317 111.809 29.6915C111.809 28.1513 112.782 27.1376 114.16 27.1376ZM115.052 31.1102V28.6679C115.065 28.5295 115.05 28.3899 115.008 28.2575C114.966 28.1251 114.897 28.0026 114.806 27.8975C114.715 27.7923 114.604 27.7067 114.479 27.6458C114.354 27.5849 114.218 27.55 114.079 27.5431C113.228 27.5431 112.66 28.2729 112.66 29.4076C112.66 30.7457 113.228 31.3533 114.16 31.3533C114.475 31.36 114.784 31.2756 115.052 31.1102Z"
      fill="#004D44" />
    <path
      d="M118.333 29.8534V30.1374C118.333 31.07 118.577 31.4346 119.306 31.4346C119.643 31.4263 119.969 31.313 120.239 31.1104L120.319 28.6377V28.5974C120.319 28.0301 120.158 27.8273 119.549 27.6648V27.4218L121.131 27.219L121.009 30.6244V30.6646C121.009 31.3132 121.171 31.475 121.738 31.516V31.7187L120.36 32.0429L120.198 31.9616L120.228 31.4042C119.835 31.774 119.319 31.9866 118.779 32.0019C117.969 32.0019 117.563 31.4855 117.563 30.6243V28.516C117.563 27.9692 117.442 27.7459 116.955 27.6647V27.4216L118.374 27.2189L118.333 29.8534Z"
      fill="#004D44" />
    <path
      d="M124.654 27.1376C125.465 27.1376 126.154 27.5834 126.154 28.1514C126.161 28.2125 126.154 28.2744 126.134 28.3327C126.115 28.3909 126.082 28.4442 126.04 28.4886C125.997 28.5331 125.946 28.5677 125.888 28.59C125.831 28.6123 125.769 28.6217 125.708 28.6177C125.623 28.6168 125.54 28.5957 125.465 28.5562C125.181 27.7458 124.938 27.5431 124.492 27.5431C123.884 27.5431 123.276 28.1104 123.276 29.3673C123.276 30.6439 123.843 31.3533 124.695 31.3533C125.144 31.3431 125.58 31.2025 125.951 30.9484L126.113 30.9887C125.944 31.3015 125.692 31.5615 125.384 31.7402C125.077 31.9189 124.726 32.0095 124.371 32.0018C123.195 32.0018 122.425 31.0897 122.425 29.6103C122.425 28.0301 123.519 27.1376 124.654 27.1376Z"
      fill="#004D44" />
    <path
      d="M127.894 29.8944L129.313 29.3673V28.516C129.313 27.9077 129.07 27.6647 128.583 27.6647C127.934 27.6647 127.731 28.1515 127.488 28.8806C127.083 28.8403 126.88 28.7188 126.88 28.4348C126.88 27.9485 128.137 27.1376 129.191 27.1376C129.317 27.1218 129.445 27.1351 129.566 27.1763C129.686 27.2176 129.795 27.2859 129.885 27.3758C129.975 27.4658 130.043 27.5752 130.085 27.6955C130.126 27.8158 130.139 27.944 130.123 28.0702V28.1515L130.042 30.6645V30.7458C130.042 31.3131 130.123 31.4346 130.812 31.6373V31.8401C130.525 31.9403 130.224 31.9949 129.92 32.0019C129.835 32.0083 129.749 31.9976 129.668 31.9704C129.587 31.9431 129.512 31.9 129.448 31.8433C129.383 31.7867 129.331 31.7178 129.294 31.6407C129.257 31.5636 129.236 31.4798 129.231 31.3943C129.047 31.5849 128.827 31.7369 128.583 31.8412C128.34 31.9455 128.078 32.0002 127.813 32.0019C127.164 32.0019 126.718 31.6777 126.718 31.0291C126.718 30.4617 127.174 30.1579 127.894 29.8944ZM129.231 31.1506L129.303 29.7425L128.299 30.1373C127.772 30.3499 127.57 30.5428 127.57 30.9074C127.57 31.2726 127.853 31.4344 128.218 31.4344C128.574 31.4272 128.923 31.3295 129.231 31.1506Z"
      fill="#004D44" />
    <path
      d="M131.783 28.0702L131.256 27.7057V27.5029C131.764 27.2247 132.142 26.7592 132.31 26.2057L132.594 26.2863L132.553 27.3814L133.688 27.3001C133.723 27.2938 133.759 27.2954 133.794 27.3048C133.828 27.3142 133.86 27.3311 133.888 27.3544C133.915 27.3776 133.936 27.4066 133.951 27.4393C133.966 27.4719 133.973 27.5074 133.972 27.5432C133.972 27.7862 133.81 27.9077 133.556 27.9077H132.553V30.543C132.553 31.2318 132.715 31.4749 133.162 31.4749C133.45 31.4757 133.732 31.3911 133.972 31.2318L134.053 31.4346C133.891 31.6175 133.691 31.763 133.467 31.861C133.243 31.9589 133 32.007 132.756 32.0019C132.067 32.0019 131.681 31.6777 131.702 30.9075L131.783 28.0702Z"
      fill="#004D44" />
    <path
      d="M134.457 31.6374C135.065 31.5159 135.126 31.3534 135.146 30.7458L135.227 28.6784V28.5972C135.261 28.3943 135.223 28.1858 135.12 28.008C135.016 27.8302 134.853 27.6945 134.66 27.6243V27.4216L135.916 27.1376L136.078 27.2591C136.037 27.5832 135.997 28.2729 135.997 28.6375V30.5429C135.997 31.313 135.997 31.5158 136.686 31.6373V31.8803H134.457L134.457 31.6374ZM135.146 25.2732C135.16 25.1722 135.204 25.0774 135.271 25.0003C135.337 24.9232 135.425 24.8668 135.523 24.8381C135.621 24.8093 135.725 24.8093 135.823 24.8381C135.921 24.8669 136.009 24.9232 136.075 25.0003C136.142 25.0775 136.186 25.1722 136.2 25.2733C136.215 25.3743 136.2 25.4774 136.157 25.5702C136.115 25.6631 136.047 25.7418 135.961 25.797C135.875 25.8522 135.775 25.8815 135.673 25.8815C135.598 25.8777 135.524 25.8588 135.457 25.8258C135.389 25.7929 135.329 25.7466 135.28 25.6897C135.23 25.6329 135.193 25.5667 135.17 25.4951C135.147 25.4235 135.139 25.3481 135.146 25.2732Z"
      fill="#004D44" />
    <path
      d="M139.806 27.1376C140.982 27.1376 141.752 27.9077 141.752 29.327C141.752 30.9484 140.779 32.0018 139.319 32.0018C138.144 32.0018 137.374 31.2317 137.374 29.8131C137.374 28.1917 138.346 27.1376 139.806 27.1376ZM140.86 29.6513C140.86 28.3131 140.373 27.5431 139.563 27.5431C138.792 27.5431 138.266 28.3132 138.266 29.4888C138.266 30.8262 138.752 31.597 139.563 31.597C140.333 31.597 140.86 30.8262 140.86 29.6513Z"
      fill="#004D44" />
    <path
      d="M142.559 31.6375C143.126 31.5159 143.188 31.3534 143.208 30.7459L143.289 28.6786V28.5974C143.289 28.1106 143.167 27.7863 142.722 27.6245V27.4218L143.937 27.1378L144.059 27.219V27.8676C144.829 27.3405 145.235 27.1378 145.802 27.1378C146.532 27.1378 146.856 27.5836 146.856 28.3543V30.5431C146.856 31.3132 146.856 31.5159 147.545 31.6375V31.8805H145.316V31.6375C145.883 31.5159 145.974 31.3534 146.005 30.7459L146.086 28.8807V28.8001C146.086 28.0703 145.843 27.7861 145.275 27.7861C144.842 27.7852 144.419 27.9123 144.059 28.1514V30.5429C144.059 31.313 144.059 31.5157 144.748 31.6372V31.8803H142.559V31.6375Z"
      fill="#004D44" />
  </g>
  <defs>
    <clipPath id="clip0_175_13112">
      <rect width="146.994" height="48" fill="white" transform="translate(0.550781)" />
    </clipPath>
  </defs>
</svg>