<svg width="181" height="64" viewBox="0 0 181 64" fill="none" xmlns="http://www.w3.org/2000/svg">
<g clip-path="url(#clip0_209_1005)">
<path d="M9.14178 17.6134C9.65474 17.6134 10.0707 17.1974 10.0707 16.6845C10.0707 16.1715 9.65474 15.7555 9.14178 15.7555C8.62882 15.7555 8.21282 16.1715 8.21282 16.6845C8.2133 17.1972 8.62882 17.613 9.14178 17.6134Z" fill="#A39161"/>
<path d="M7.66748 46.4131C7.0941 46.4128 6.62915 46.8778 6.62891 47.4512C6.62867 48.0246 7.09362 48.4895 7.667 48.4897C8.24038 48.49 8.70533 48.025 8.70557 47.4517C8.70486 46.8788 8.24062 46.414 7.66748 46.4131Z" fill="#A39161"/>
<path d="M1.71489 43.8473C1.7039 43.9837 1.7156 44.1207 1.74975 44.2533C1.78056 44.3873 1.82355 44.5181 1.87799 44.6445C2.73913 44.2982 3.64302 43.8327 3.47418 41.9163C3.41089 41.4693 3.32492 41.0258 3.21627 40.5876C2.44898 37.4511 2.13137 34.2212 2.27274 30.9952C2.51155 26.2186 4.86953 21.8186 6.00315 19.7039C6.23909 19.2636 6.42583 18.9161 6.51634 18.706C6.85282 17.9298 5.44338 16.7262 4.86905 16.3239C4.60421 16.4879 4.41771 16.7532 4.35299 17.0579C4.30833 17.2531 4.31788 17.4565 4.38093 17.6464C2.68015 20.1937 1.44957 23.025 0.74772 26.0065C0.74772 26.0065 0.715242 26.1271 0.685152 26.2862C0.231896 28.305 0.00431353 30.3681 0.0067016 32.4374C-0.012403 32.4796 0.0143435 33.3732 0.024851 33.6173C-0.0424926 37.102 0.530405 40.5694 1.71489 43.8473Z" fill="#A39161"/>
<path d="M28.3136 20.6846C27.7911 20.6843 27.3672 21.108 27.3672 21.6305C27.3669 22.153 27.7906 22.5769 28.3131 22.5769C28.8356 22.5769 29.2595 22.1535 29.2595 21.631C29.2588 21.1087 28.8359 20.6853 28.3136 20.6846Z" fill="#A39161"/>
<path d="M22.5456 36.3213C23.0517 36.3213 23.4621 35.9109 23.4621 35.4047C23.4621 34.8985 23.0517 34.4882 22.5456 34.4882C22.0394 34.4882 21.629 34.8985 21.629 35.4047C21.629 35.9109 22.0394 36.3213 22.5456 36.3213Z" fill="#A39161"/>
<path d="M30.5133 18.4247C30.9699 16.7817 30.4894 15.6715 30.0051 15.0264C29.7191 14.6412 29.3539 14.3217 28.9341 14.0896C27.1027 12.8435 24.8651 13.6798 24.7982 13.7106C23.7154 14.4416 22.3712 14.6732 21.1062 14.3468C17.6946 13.4761 15.0095 9.1026 14.5054 8.23477L14.2229 7.89399C14.1412 7.80277 14.0316 7.74163 13.911 7.71966L13.2526 7.28981C13.0893 7.17853 12.8731 7.18402 12.7158 7.30342L12.6489 7.35309C12.6429 7.35309 12.6374 7.35023 12.6305 7.34927C12.2061 7.30987 11.782 7.4288 11.4401 7.6836C11.0102 7.96683 10.5923 8.4165 10.6393 8.85686L9.77604 9.50355C9.42667 9.53221 9.09186 9.65496 8.80673 9.8589C8.46404 10.0817 8.10248 10.4378 8.02201 10.8158L7.46129 11.2368L7.36935 11.3173L7.35884 11.367C7.32923 11.4135 7.30869 11.4651 7.29866 11.5193C7.28481 11.5523 7.27884 11.5881 7.28123 11.6237L7.28815 11.7634L7.32827 11.8131C7.39251 11.9413 7.81448 12.7845 8.09222 13.3089C7.2029 14.1185 6.38045 14.9985 5.63298 15.9406C6.35084 16.5075 7.74069 17.8045 7.21842 19.0097C7.11478 19.2485 6.93185 19.5912 6.67752 20.0653C5.57041 22.1305 3.26617 26.4283 3.03667 31.0334C2.89984 34.1909 3.21172 37.352 3.96324 40.4221C4.0805 40.8923 4.17172 41.3688 4.2362 41.8492C4.44205 44.1819 3.22223 44.9084 2.30664 45.2948C3.00252 46.8682 3.89112 48.3493 4.95143 49.7043C5.74761 50.6135 6.81365 52.3083 6.59657 53.3177C6.3463 53.2265 6.07645 53.2019 5.81376 53.2461C5.31012 53.3597 4.8891 53.7029 4.67632 54.1734C4.36946 54.8432 4.49889 55.632 5.00373 56.1686C5.45029 56.6023 6.11633 56.7016 6.92588 56.4337C6.93281 56.4501 6.94093 56.4659 6.94976 56.4814C7.03693 56.6398 7.19502 56.7465 7.3746 56.768C7.50595 56.7826 7.63777 56.79 7.77007 56.79C9.22655 56.79 11.5394 55.9231 14.331 51.8225C15.3051 51.9985 16.1503 52.1296 16.8328 52.2111L17.9361 52.4045C18.3984 52.5557 19.4033 52.4981 19.9189 51.1899L31.0475 22.4044C31.6653 21.0881 31.4573 19.5323 30.5155 18.4244L30.5133 18.4247ZM14.2895 10.193C14.3134 10.2345 16.7287 14.3786 21.3565 15.3261C21.6605 15.3897 21.97 15.4224 22.2805 15.4241C23.2469 15.4241 23.9798 15.0766 24.6891 14.7406C25.3553 14.4249 25.982 14.1283 26.7404 14.1283C26.9539 14.1288 27.1667 14.1522 27.3752 14.1985C29.6574 14.7 29.8151 17.0838 29.8165 17.1076C29.8275 17.292 29.6871 17.4503 29.5027 17.4613C29.5029 17.4613 29.5025 17.4613 29.5027 17.4613H29.4817C29.305 17.4608 29.1588 17.3235 29.1473 17.147C29.1423 17.0692 29.0062 15.2421 27.2312 14.8524C27.0704 14.8165 26.9061 14.7984 26.7414 14.7981C26.1305 14.7981 25.5953 15.0518 24.9766 15.3452C24.2365 15.6958 23.399 16.093 22.2771 16.093C21.9225 16.0915 21.569 16.0543 21.2218 15.9817C16.2833 14.9701 13.7307 10.5667 13.7056 10.5225C13.6142 10.3616 13.6703 10.1572 13.8312 10.0655C13.9922 9.97376 14.1966 10.0301 14.2883 10.1911L14.2895 10.193ZM22.7605 20.5921V18.8297L23.2054 18.6864C23.3546 18.6329 23.4883 18.5816 23.5994 18.5359L23.608 19.1683L22.7605 20.5921ZM22.7717 20.6363V23.5879L21.8979 25.1968V22.113L22.7717 20.6363ZM19.6481 25.8262L18.3117 28.0739V33.0377L17.4382 34.6466V29.543L18.3079 28.0715V19.1764L18.4846 19.2058C18.6995 19.2361 18.9107 19.2536 19.1194 19.2674L19.651 19.2868H19.6605V25.8048L20.5343 24.3273V19.256L20.8846 19.2287C21.0783 19.206 21.2608 19.1762 21.441 19.1449L21.8869 19.0556V22.0612L20.5338 24.3356V28.4398L19.66 30.0486L19.6605 25.8048L19.6481 25.8262ZM13.8549 35.5679V17.6736C14.0072 17.7811 14.1656 17.8797 14.3294 17.9693L14.8612 18.2319C14.9708 18.2797 15.0866 18.3294 15.2077 18.3774V33.2725L16.0813 31.7948V18.6821L16.088 18.6845C16.2878 18.7451 16.4939 18.8039 16.7136 18.8602L17.245 18.9818C17.3063 18.9949 17.3706 19.0071 17.4339 19.0198V29.5488L16.0813 31.8234V37.6467L15.2077 39.2558V33.2933L13.8549 35.5679ZM11.6278 39.3117V18.2167L11.9807 17.8632L12.8975 16.9407C12.9214 16.9539 12.9529 16.972 12.982 16.9885V37.037L11.9368 38.7949L11.6278 39.3117ZM11.6688 39.3203V46.1633L10.7953 47.7721V40.7978L11.6688 39.3203ZM12.9804 37.1001L13.8542 35.6224V42.4654L12.9804 44.0744V37.1001ZM9.03479 12.2482L13.4912 8.24791C13.5523 8.1925 13.6321 8.16193 13.7147 8.16193C13.9 8.16241 14.0497 8.31286 14.0495 8.49818C14.0495 8.50391 14.0493 8.50964 14.049 8.51537C14.0445 8.60421 14.0046 8.68755 13.938 8.74677L9.67336 12.5753C10.1715 13.5148 10.8939 14.3167 11.7768 14.9094C11.9339 15.0071 11.9819 15.2139 11.8842 15.371C11.7866 15.5282 11.5798 15.5762 11.4226 15.4785C10.3587 14.7697 9.50548 13.7875 8.9524 12.635C8.8927 12.5018 8.92613 12.3454 9.03479 12.2482ZM9.14153 14.9911C10.0767 14.9911 10.8347 15.7491 10.8347 16.6842C10.8347 17.6194 10.0767 18.3774 9.14153 18.3774C8.20637 18.3774 7.44839 17.6194 7.44839 16.6842C7.44935 15.7498 8.20684 14.9923 9.14153 14.9911ZM10.7547 19.1404V40.7811L10.7446 40.798L8.81079 44.0494C6.10654 38.9764 6.006 33.7236 6.00504 33.6596C5.70415 26.8426 8.37855 22.0295 10.7547 19.1404ZM5.8651 47.4509C5.86534 46.4556 6.67227 45.6487 7.66762 45.6489C8.66297 45.6491 9.46989 46.4561 9.46966 47.4514C9.46942 48.4468 8.66273 49.2535 7.66738 49.2535C6.67251 49.2525 5.86606 48.4461 5.8651 47.4509ZM11.2669 50.0188L8.30117 55.8851C8.24434 55.9981 8.12828 56.0692 8.00171 56.069C7.94941 56.069 7.89759 56.0566 7.85078 56.0332C7.68577 55.9503 7.61914 55.7495 7.70201 55.5845C7.70225 55.5838 7.70272 55.5833 7.70296 55.5826L10.6687 49.7165C10.7255 49.6035 10.8414 49.5321 10.9679 49.5324C11.1525 49.5317 11.3027 49.6807 11.3035 49.8653C11.3037 49.9188 11.291 49.9713 11.2669 50.0188ZM13.9072 50.2868C13.8596 50.4045 13.7565 50.491 13.6321 50.5175C13.5076 50.5437 13.3784 50.5065 13.287 50.4181C13.2817 50.4131 12.7399 49.893 11.1296 48.5726C10.9663 48.4389 10.9424 48.1982 11.0763 48.0348C11.2101 47.8715 11.4508 47.8476 11.6141 47.9816C12.5025 48.7092 13.0685 49.1957 13.4047 49.4925C14.9281 45.7244 24.3872 22.3155 24.9654 20.6585C25.4611 19.2373 26.1568 18.6544 26.6532 18.4158C27.0578 18.2095 27.529 18.1765 27.9583 18.3244C28.1573 18.3946 28.2616 18.6128 28.1914 18.8118C28.1212 19.0107 27.9029 19.1151 27.704 19.0448C27.4659 18.9668 27.2063 18.9883 26.9845 19.1045C26.467 19.3534 26.0056 19.9943 25.6868 20.9099C25.0544 22.7208 14.3619 49.1629 13.9072 50.2868ZM26.7655 23.8296C27.0401 23.8296 27.2629 24.0522 27.2629 24.327C27.2629 24.6016 27.0404 24.8245 26.7655 24.8245C26.4909 24.8245 26.2681 24.6019 26.2681 24.327C26.2678 24.0524 26.4909 23.8296 26.7655 23.8296C26.7652 23.8296 26.7655 23.8293 26.7655 23.8296ZM25.4463 27.4981C25.4478 27.683 25.2995 27.8341 25.1146 27.8365H25.112C24.9286 27.8356 24.78 27.688 24.7777 27.5046L24.7426 24.4963C24.7406 24.3113 24.8892 24.1599 25.0743 24.1579C25.2593 24.156 25.4107 24.3046 25.4126 24.4896L25.4463 27.4981ZM24.1826 27.9588C24.1823 28.2334 23.9597 28.4558 23.6851 28.4558C23.4105 28.4558 23.1882 28.2329 23.1882 27.9583C23.1884 27.6839 23.4107 27.4614 23.6854 27.4614C23.96 27.4609 24.1828 27.683 24.1835 27.9576C24.1835 27.9581 24.1826 27.9583 24.1826 27.9588ZM21.1471 37.9385C21.4217 37.9383 21.6445 38.1609 21.6448 38.4357C21.645 38.7106 21.4224 38.9332 21.1476 38.9334C20.8729 38.9336 20.6501 38.7111 20.6499 38.4362C20.6499 38.4365 20.6499 38.436 20.6499 38.4362C20.6496 38.1616 20.8724 37.9388 21.1471 37.9385ZM16.0648 47.2974C15.9497 47.4423 15.7386 47.4667 15.5936 47.3514C15.4487 47.2363 15.4243 47.0251 15.5397 46.8802L18.3855 43.2969C18.449 43.2167 18.5458 43.1698 18.6482 43.1701C18.8328 43.1689 18.9835 43.3174 18.9847 43.502C18.9852 43.5792 18.9591 43.6539 18.9109 43.7139L16.0648 47.2974ZM18.0703 47.5548C18.0703 47.8294 17.8477 48.052 17.5731 48.052C17.2985 48.052 17.0759 47.8294 17.0759 47.5548C17.0759 47.2802 17.2985 47.0576 17.5731 47.0576C17.8477 47.0576 18.0703 47.28 18.0703 47.5548ZM17.3813 42.1537C17.3811 41.8791 17.6037 41.6563 17.8785 41.6561C18.1532 41.6558 18.376 41.8784 18.3762 42.1532C18.3764 42.4279 18.1539 42.6507 17.879 42.6509C17.8792 42.6509 17.8788 42.6509 17.879 42.6509C17.6046 42.6507 17.3816 42.4281 17.3813 42.1537ZM16.7745 50.5253C16.4999 50.5256 16.2771 50.303 16.2768 50.0281C16.2766 49.7533 16.4992 49.5307 16.774 49.5305C17.0487 49.5302 17.2715 49.7528 17.2717 50.0277C17.2717 50.3023 17.0489 50.5251 16.7745 50.5253ZM18.9343 51.1971C18.9095 51.3507 18.7652 51.455 18.6117 51.4302C18.4751 51.4082 18.3748 51.2905 18.375 51.1522C18.3755 51.1214 18.381 51.0908 18.3912 51.0617C18.577 50.1062 17.9533 49.1813 16.9978 48.9955C16.0514 48.8114 15.133 49.4221 14.9362 50.3658C14.9333 50.3739 14.93 50.3821 14.9259 50.3897C14.8794 50.5378 14.7217 50.6201 14.5737 50.5736C14.4567 50.5368 14.3769 50.4284 14.3769 50.3059C14.3769 50.3009 14.3769 50.2961 14.3783 50.2911C14.3767 50.2729 14.3776 50.2543 14.3812 50.2364C14.6589 48.9815 15.9012 48.1893 17.1561 48.4668C18.3936 48.7407 19.1838 49.9544 18.9343 51.1971ZM19.3541 38.2657C19.5373 38.2688 19.6858 38.4145 19.6925 38.5976L19.7276 41.6463C19.73 41.8309 19.5822 41.9825 19.3976 41.9849C19.3971 41.9849 19.3966 41.9849 19.3961 41.9849H19.3926C19.2094 41.9837 19.0609 41.8364 19.0582 41.6532L19.0231 38.6043C19.0217 38.4197 19.1693 38.2683 19.3541 38.2657ZM19.0315 42.826C19.0317 42.5513 19.2543 42.329 19.5289 42.329C19.8035 42.3292 20.0259 42.5518 20.0259 42.8264C20.0256 43.1008 19.8033 43.3234 19.5287 43.3234C19.2543 43.3232 19.0315 43.1006 19.0315 42.826ZM19.9502 49.4392C19.9454 49.621 19.7976 49.7659 19.6158 49.7676H19.612C19.4262 49.7647 19.2777 49.6117 19.2806 49.4259L19.3904 43.9949C19.3966 43.8125 19.5459 43.6675 19.7286 43.6666C19.9144 43.669 20.0631 43.8213 20.0607 44.0071C20.0607 44.0076 20.0607 44.0081 20.0607 44.0083L19.9502 49.4392ZM21.1559 43.955C20.8813 43.955 20.6585 43.7325 20.6585 43.4576C20.6585 43.183 20.881 42.9602 21.1559 42.9602C21.4308 42.9602 21.6533 43.1827 21.6533 43.4574C21.6531 43.7318 21.4303 43.955 21.1559 43.955ZM23.8817 38.7113L20.4562 42.2263C20.327 42.3589 20.1147 42.3617 19.9822 42.2323C19.8496 42.1031 19.8468 41.8908 19.9762 41.7583L23.4024 38.243C23.5316 38.1105 23.7436 38.1076 23.8764 38.2368C24.0089 38.366 24.0118 38.5781 23.8826 38.7108L23.8817 38.7113ZM22.5448 37.0862C21.6166 37.0862 20.8641 36.3338 20.8641 35.4055C20.8641 34.4773 21.6166 33.7248 22.5448 33.7248C23.4731 33.7248 24.2255 34.4773 24.2255 35.4055C24.2241 36.333 23.4721 37.085 22.5448 37.0862ZM23.7802 32.8725C23.5055 32.8727 23.2827 32.6502 23.2825 32.3755C23.2823 32.1009 23.5048 31.8781 23.7797 31.8779C24.0543 31.8776 24.2771 32.1002 24.2774 32.3751C24.2771 32.6492 24.0546 32.8722 23.7802 32.8725ZM24.6306 29.5662L22.0959 32.7576C21.9808 32.9026 21.7699 32.9269 21.6247 32.8118C21.4797 32.6967 21.4554 32.4859 21.5705 32.3407L24.1052 29.149C24.1687 29.0688 24.2654 29.0222 24.3679 29.0224C24.5525 29.0212 24.7032 29.17 24.7041 29.3546C24.7046 29.4315 24.6786 29.5063 24.6306 29.5662ZM24.7141 28.5787C24.7139 28.3041 24.9365 28.0813 25.2113 28.0811C25.4862 28.0808 25.7088 28.3034 25.709 28.5783C25.7092 28.8531 25.4867 29.0757 25.2118 29.0759C25.212 29.0759 25.2116 29.0759 25.2118 29.0759C24.9372 29.0757 24.7139 28.8534 24.7141 28.5787ZM25.693 34.8904C25.6882 35.0721 25.5404 35.2171 25.3587 35.2188H25.3546C25.1688 35.2157 25.0205 35.0628 25.0232 34.877L25.1227 29.9538C25.1235 29.9282 25.1273 29.9029 25.1337 29.8781V29.8473C25.1366 29.753 25.2087 29.6751 25.3026 29.6648C25.3508 29.6395 25.4045 29.6259 25.459 29.6257C25.645 29.6269 25.7945 29.7787 25.7933 29.9645C25.7933 29.9655 25.7933 29.9662 25.7933 29.9672L25.693 34.8904ZM26.7058 29.6737C26.4312 29.6739 26.2084 29.4513 26.2081 29.1765C26.2079 28.9016 26.4304 28.679 26.7053 28.6788C26.9799 28.6786 27.2027 28.9011 27.2027 29.176C27.2023 29.4501 26.9799 29.6732 26.7058 29.6737ZM29.6142 24.6707L26.1881 28.1857C26.0596 28.3182 25.8478 28.3213 25.7155 28.1926C25.7152 28.1923 25.7147 28.1919 25.7145 28.1916C25.6247 28.1061 25.5913 27.9774 25.6278 27.859C25.6218 27.8038 25.6405 27.7486 25.6789 27.7085L29.1051 24.1935C29.1364 24.1622 29.1777 24.1431 29.2219 24.1396C29.3857 24.0543 29.5875 24.1181 29.6727 24.2819C29.7394 24.4104 29.7157 24.5673 29.6142 24.6707ZM28.312 23.341C27.3673 23.3412 26.6014 22.5754 26.6014 21.6309C26.6012 20.6862 27.367 19.9203 28.3115 19.9203C29.2562 19.9201 30.0221 20.6859 30.0221 21.6304C30.0221 21.6302 30.0221 21.6306 30.0221 21.6304C30.0207 22.5742 29.2555 23.3398 28.312 23.341Z" fill="#A39161"/>
<path d="M43.7011 0.0019349C43.5038 10.3978 43.3984 21.0838 43.3984 32C43.3984 42.9162 43.5038 53.6022 43.7011 63.9981C43.7862 63.9981 43.8704 64 43.9555 64C44.0406 64 44.1247 63.9981 44.2098 63.9981C44.4071 53.6022 44.5125 42.9162 44.5125 32C44.5125 21.0838 44.4071 10.3978 44.2098 0.0019349C44.1247 0.0019349 44.0406 0 43.9555 0C43.8704 0 43.7862 0.0019349 43.7011 0.0019349Z" fill="white"/>
<path d="M65.0935 31.1511C64.2424 31.1511 63.1754 30.7184 62.5803 30.1376C61.7693 29.3543 61.5668 29.0162 60.5266 26.7332C60.3241 26.7599 60.175 26.7733 60.0805 26.7733C59.9859 26.7733 59.8636 26.7599 59.6755 26.7332V28.5577C59.6755 29.6122 59.878 29.8549 60.8915 30.044V30.3277H56.5137V30.044C57.6485 29.9084 57.9054 29.6256 57.9054 28.5577V23.6125C57.9054 22.5722 57.6752 22.2341 56.7028 21.8969V21.6132L59.3106 21.7622C60.1483 21.6132 60.5533 21.5731 61.0663 21.5731C62.6338 21.5731 63.5661 22.4242 63.5661 23.8293C63.5661 24.221 63.4983 24.5859 63.3493 24.8839C63.1066 25.3835 62.7818 25.7082 61.9164 26.3158C63.2681 28.4908 63.93 29.4231 64.5509 30.0048C64.997 30.4232 65.51 30.6534 66.1996 30.748V30.9773C65.6341 31.1244 65.445 31.1511 65.0935 31.1511ZM59.6755 22.1797V25.949C60.0805 26.098 60.2562 26.1381 60.5266 26.1381C60.7023 26.1381 60.8236 26.1247 61.1752 26.0435C61.2697 25.9356 61.3509 25.8267 61.4187 25.7465C61.7292 25.3281 61.8916 24.8275 61.8916 24.2601C61.8916 23.004 61.1885 22.3411 59.6755 22.1797Z" fill="white"/>
<path d="M65.5701 30.3268V30.0431C65.7459 29.9886 65.8806 29.9351 65.9885 29.8673C66.2321 29.6915 66.2856 29.5291 66.3124 28.6513L66.4069 26.0435V25.949C66.4069 25.6108 66.3525 25.2602 66.2856 25.0711C66.2054 24.8552 66.0697 24.7607 65.7459 24.6384V24.3681L67.6105 23.9898L68.0833 24.1789L67.9888 25.8544V28.6513C67.9888 29.7183 68.0556 29.8673 68.6374 30.0431V30.3268H65.5701ZM67.2456 22.6792C66.6247 22.6792 66.1242 22.2331 66.1242 21.6657C66.1242 21.1518 66.6238 20.7334 67.2456 20.7334C67.8541 20.7334 68.3537 21.1518 68.3537 21.6657C68.3537 22.2341 67.8541 22.6792 67.2456 22.6792Z" fill="white"/>
<path d="M73.4348 30.4623H73.408C72.9485 30.4623 72.705 30.2999 72.5158 29.8672C71.786 30.3811 71.4211 30.5158 70.8002 30.5158C69.8679 30.5158 69.2461 29.9617 69.2461 29.1374C69.2461 28.826 69.3273 28.5423 69.4763 28.313C69.6654 28.0293 69.9358 27.8669 70.6512 27.6233L72.5158 26.9747V26.137L72.4891 25.3938C72.4757 24.8675 72.3811 24.7319 71.9895 24.7319C71.53 24.7319 71.2597 24.9611 70.976 25.5964L70.6522 26.3128H70.2739C69.8145 26.3128 69.5308 26.1236 69.5308 25.7855C69.5308 25.4884 69.7734 25.1235 70.1794 24.8264C70.8958 24.2992 71.7469 24.0298 72.7193 24.0298C73.706 24.0298 74.0977 24.3947 74.0977 25.3136V25.475L74.0031 28.42V28.5146C74.0031 29.2577 74.1655 29.5013 74.9354 29.8662V30.2311C74.3537 30.3677 73.8541 30.4623 73.4348 30.4623ZM72.5158 27.5842L71.5835 28.0026C71.0429 28.2461 70.827 28.4888 70.827 28.8947C70.827 29.3408 71.1508 29.6245 71.638 29.6245C71.8672 29.6245 72.1653 29.5844 72.5158 29.4889V27.5842Z" fill="white"/>
<path d="M75.3555 30.3268V30.0431C75.9362 29.9217 76.0585 29.6915 76.0986 28.6513L76.1932 26.0435V23.5303C76.1932 22.4357 76.1664 22.1787 76.0585 21.8148C75.9907 21.5712 75.9095 21.4632 75.6258 21.2875V21.0038L77.6384 20.6389L77.9623 20.9092C77.7865 22.0708 77.7731 22.3678 77.7731 24.2191V28.6513C77.7731 29.7183 77.9489 29.9485 78.4895 30.0431V30.3268H75.3555Z" fill="white"/>
<path d="M81.3558 30.517C80.2478 30.517 79.6259 29.9629 79.6536 28.9361L79.7482 25.4772L79.0996 24.6395V24.2746C79.6536 24.0577 79.8561 23.9364 80.2478 23.5448C80.5047 23.3012 80.6127 23.1665 80.8696 22.7739L81.5182 23.0576L81.3291 24.3137L82.4505 24.2192C82.7887 24.1924 83.0046 24.4083 83.0046 24.692C83.0046 25.0435 82.7075 25.3005 82.2614 25.3005H81.3291V28.4623C81.3291 29.0297 81.4237 29.2866 81.6806 29.4624C81.9242 29.6248 82.1945 29.6792 82.91 29.6792L83.0046 29.9496C82.3015 30.3947 81.9643 30.517 81.3558 30.517Z" fill="white"/>
<path d="M87.5833 30.4624H87.5565C87.0971 30.4624 86.8535 30.3 86.6644 29.8673C85.9346 30.3812 85.5697 30.5159 84.9488 30.5159C84.0165 30.5159 83.3946 29.9619 83.3946 29.1375C83.3946 28.8261 83.4758 28.5424 83.6248 28.3131C83.814 28.0294 84.0843 27.8671 84.7998 27.6235L86.6644 26.9749V26.1371L86.6376 25.394C86.6242 24.8676 86.5297 24.732 86.138 24.732C85.6786 24.732 85.4082 24.9613 85.1245 25.5965L84.8007 26.3129H84.4224C83.963 26.3129 83.6793 26.1238 83.6793 25.7856C83.6793 25.4885 83.9219 25.1237 84.3279 24.8266C85.0443 24.2993 85.8954 24.0299 86.8678 24.0299C87.8546 24.0299 88.2462 24.3948 88.2462 25.3137V25.4752L88.1516 28.4201V28.5147C88.1516 29.2579 88.314 29.5014 89.0839 29.8663V30.2312C88.5013 30.3678 88.0017 30.4624 87.5833 30.4624ZM86.6644 27.5843L85.7321 28.0027C85.1914 28.2463 84.9755 28.4889 84.9755 28.8949C84.9755 29.341 85.2993 29.6247 85.7865 29.6247C86.0158 29.6247 86.3138 29.5845 86.6644 29.489V27.5843Z" fill="white"/>
<path d="M92.2467 30.4624C91.6927 30.4624 91.2876 30.4223 90.0038 30.1921L89.8147 28.3685L90.1796 28.274C90.8282 29.0573 91.0985 29.341 91.45 29.5979C91.6525 29.7594 91.9773 29.8816 92.1798 29.8816C92.6125 29.8816 92.9497 29.5301 92.9497 29.0983C92.9497 28.977 92.923 28.8548 92.8695 28.7602C92.815 28.6389 92.7205 28.5434 92.6125 28.4765C92.518 28.422 92.3288 28.3151 92.0451 28.1794L91.302 27.8145C90.2073 27.2739 89.7755 26.7332 89.7755 25.9088C89.7755 24.774 90.6534 24.0309 92.005 24.0309C92.6125 24.0309 92.9641 24.0977 93.8152 24.369L94.0043 25.7608L93.626 25.9499C93.0854 25.2879 92.9096 25.0988 92.6125 24.8829C92.4234 24.7339 92.113 24.626 91.8961 24.626C91.45 24.626 91.1128 24.9641 91.1128 25.3825C91.1128 25.7608 91.3555 26.0177 91.9506 26.3148L93.072 26.8822C94.031 27.3684 94.3826 27.8011 94.3826 28.5443C94.3816 29.7049 93.5295 30.4624 92.2467 30.4624Z" fill="white"/>
<path d="M101.733 30.3267V30.043C102.328 29.9217 102.45 29.7048 102.49 28.6512L102.584 26.3138V26.246C102.584 25.4216 102.179 24.9899 101.435 24.9899C101.125 24.9899 100.908 25.0577 100.436 25.3013V28.6522C100.436 29.7192 100.516 29.9226 100.99 30.044V30.3277H98.0176V30.044C98.5984 29.9226 98.7197 29.6924 98.7607 28.6522L98.8553 26.0444V25.9231C98.8553 25.1398 98.7072 24.8829 98.0988 24.6393V24.368L100.436 23.9897V24.8275C101.301 24.1789 101.72 24.0165 102.571 24.0165C103.679 24.0165 104.165 24.5161 104.165 25.6652V28.6512C104.165 29.6246 104.273 29.8672 104.814 30.043V30.3267H101.733Z" fill="white"/>
<path d="M109.614 30.4623H109.588C109.128 30.4623 108.885 30.2999 108.695 29.8672C107.966 30.3811 107.601 30.5158 106.98 30.5158C106.048 30.5158 105.426 29.9617 105.426 29.1374C105.426 28.826 105.507 28.5423 105.656 28.313C105.845 28.0293 106.115 27.8669 106.831 27.6233L108.695 26.9747V26.137L108.669 25.3938C108.655 24.8675 108.561 24.7319 108.169 24.7319C107.71 24.7319 107.439 24.9611 107.156 25.5964L106.832 26.3128H106.454C105.994 26.3128 105.71 26.1236 105.71 25.7855C105.71 25.4884 105.953 25.1235 106.359 24.8264C107.075 24.2992 107.927 24.0298 108.899 24.0298C109.886 24.0298 110.277 24.3947 110.277 25.3136V25.475L110.183 28.42V28.5146C110.183 29.2577 110.345 29.5013 111.115 29.8662V30.2311C110.533 30.3677 110.034 30.4623 109.614 30.4623ZM108.695 27.5842L107.763 28.0026C107.223 28.2461 107.007 28.4888 107.007 28.8947C107.007 29.3408 107.33 29.6245 107.818 29.6245C108.047 29.6245 108.345 29.5844 108.695 29.4889V27.5842Z" fill="white"/>
<path d="M118.061 30.3266V30.0428C118.642 29.8403 118.763 29.6245 118.804 28.6511L118.899 26.4082V26.3003C118.899 25.3814 118.588 25.0165 117.831 25.0165C117.507 25.0165 117.277 25.0843 116.751 25.3002V28.6511C116.751 29.6101 116.859 29.8671 117.305 30.0428V30.3266H114.332V30.0428C114.967 29.9072 115.035 29.7725 115.075 28.6511L115.17 26.0433V22.5434C115.17 21.7735 115.008 21.5165 114.427 21.2873V21.0036L116.562 20.6387L116.94 21.0036L116.751 24.8273C117.656 24.1654 118.116 23.9762 118.859 23.9762C119.345 23.9762 119.751 24.1109 120.048 24.3545C120.359 24.5971 120.481 24.962 120.481 25.6651V28.6511C120.481 29.7314 120.549 29.8938 121.129 30.0428V30.3266H118.061Z" fill="white"/>
<path d="M127.846 30.3268H121.414V30.0431C122.535 29.894 122.806 29.6103 122.806 28.5567V23.6115C122.806 22.4901 122.643 22.2064 121.792 21.9361V21.6657H127.656L127.846 23.7061L127.562 23.8007C126.967 22.7337 126.522 22.3955 125.603 22.3143L124.576 22.2198V25.5707L125.508 25.5306C126.467 25.4905 126.67 25.3281 126.913 24.4636H127.197V27.2471H126.913C126.643 26.4228 126.386 26.2202 125.508 26.1801L124.576 26.14V28.3695C124.576 29.3553 124.86 29.6801 125.724 29.6801C126.724 29.6801 127.318 29.234 128.129 27.91L128.4 28.0858L127.846 30.3268ZM126.386 20.5453L123.779 21.0047L123.685 20.829L126.022 19.4238L126.671 19.8967L126.386 20.5453Z" fill="white"/>
<path d="M129.16 30.3267V30.043C129.336 29.9886 129.471 29.9351 129.579 29.8672C129.822 29.6915 129.876 29.5291 129.902 28.6512L129.997 26.0435V25.9489C129.997 25.6108 129.942 25.2602 129.876 25.0711C129.795 24.8552 129.66 24.7606 129.336 24.6384V24.368L131.201 23.9898L131.673 24.1789L131.579 25.8544V28.6512C131.579 29.7182 131.646 29.8672 132.227 30.043V30.3267H129.16ZM130.836 22.6792C130.215 22.6792 129.714 22.2331 129.714 21.6657C129.714 21.1518 130.214 20.7334 130.836 20.7334C131.444 20.7334 131.944 21.1518 131.944 21.6657C131.944 22.2341 131.444 22.6792 130.836 22.6792Z" fill="white"/>
<path d="M137.077 26.2328C136.659 25.8947 136.253 25.7065 135.943 25.7065C135.727 25.7065 135.538 25.8545 135.307 26.1793V28.6514C135.307 29.6105 135.51 29.8407 136.523 30.0432V30.3269H132.889V30.0432C133.497 29.8264 133.605 29.6382 133.632 28.6514L133.726 25.8545V25.7867C133.726 25.1381 133.537 24.8687 132.97 24.6385V24.3682L135.307 23.9766L135.253 25.3817H135.307C135.847 24.3959 136.28 23.9899 136.807 23.9899C137.225 23.9899 137.509 24.3949 137.509 24.9624C137.51 25.3951 137.429 25.652 137.077 26.2328Z" fill="white"/>
<path d="M143.013 26.9759H139.472V27.124C139.472 27.7191 139.486 27.8137 139.567 28.1786C139.77 29.0029 140.432 29.4891 141.445 29.4891C141.959 29.4891 142.256 29.4213 142.918 29.1242L143.107 29.2188C143.026 29.4213 142.971 29.5837 142.918 29.6372C142.256 30.2858 141.405 30.5695 140.458 30.5695C138.959 30.5695 137.891 29.2857 137.891 27.5156C137.891 25.4619 139.12 23.9756 140.85 23.9756C142.228 23.9756 143.134 24.7321 143.134 25.8937C143.134 26.1659 143.094 26.5308 143.013 26.9759ZM141.486 25.0712C141.365 24.8009 141.094 24.6385 140.756 24.6385C140.405 24.6385 140.081 24.8009 139.838 25.1113C139.621 25.395 139.54 25.6386 139.473 26.2328H141.433L141.608 26.0436C141.607 25.4629 141.581 25.3014 141.486 25.0712Z" fill="white"/>
<path d="M147.917 30.4623H147.89C147.431 30.4623 147.187 30.2999 146.998 29.8672C146.268 30.3811 145.904 30.5158 145.283 30.5158C144.35 30.5158 143.729 29.9617 143.729 29.1374C143.729 28.826 143.81 28.5423 143.959 28.313C144.148 28.0293 144.418 27.8669 145.134 27.6233L146.998 26.9747V26.137L146.972 25.3938C146.958 24.8675 146.864 24.7319 146.472 24.7319C146.012 24.7319 145.742 24.9611 145.458 25.5964L145.135 26.3128H144.756C144.297 26.3128 144.013 26.1236 144.013 25.7855C144.013 25.4884 144.256 25.1235 144.662 24.8264C145.378 24.2992 146.229 24.0298 147.202 24.0298C148.188 24.0298 148.58 24.3947 148.58 25.3136V25.475L148.486 28.42V28.5146C148.486 29.2577 148.648 29.5013 149.418 29.8662V30.2311C148.836 30.3677 148.337 30.4623 147.917 30.4623ZM146.998 27.5842L146.066 28.0026C145.525 28.2461 145.309 28.4888 145.309 28.8947C145.309 29.3408 145.633 29.6245 146.12 29.6245C146.35 29.6245 146.647 29.5844 146.998 29.4889V27.5842Z" fill="white"/>
<path d="M153.649 30.3268V30.0431C154.244 29.9217 154.366 29.7049 154.406 28.6513L154.501 26.3139V26.246C154.501 25.4217 154.096 24.9899 153.351 24.9899C153.041 24.9899 152.824 25.0577 152.352 25.3013V28.6522C152.352 29.7192 152.432 29.9227 152.906 30.044V30.3277H149.934V30.044C150.514 29.9227 150.637 29.6925 150.677 28.6522L150.771 26.0445V25.9232C150.771 25.1399 150.623 24.8829 150.015 24.6394V24.3681L152.352 23.9898V24.8275C153.217 24.1789 153.636 24.0165 154.487 24.0165C155.595 24.0165 156.081 24.5161 156.081 25.6653V28.6513C156.081 29.6247 156.189 29.8673 156.73 30.0431V30.3268H153.649Z" fill="white"/>
<path d="M161.11 30.3267V30.043C161.705 29.9217 161.827 29.7048 161.867 28.6512L161.962 26.3138V26.246C161.962 25.4216 161.556 24.9899 160.813 24.9899C160.503 24.9899 160.286 25.0577 159.814 25.3013V28.6522C159.814 29.7192 159.894 29.9226 160.367 30.044V30.3277H157.395V30.044C157.975 29.9226 158.098 29.6924 158.138 28.6522L158.232 26.0444V25.9231C158.232 25.1398 158.084 24.8829 157.476 24.6393V24.368L159.814 23.9897V24.8275C160.679 24.1789 161.098 24.0165 161.948 24.0165C163.056 24.0165 163.542 24.5161 163.542 25.6652V28.6512C163.542 29.6246 163.65 29.8672 164.191 30.043V30.3267H161.11Z" fill="white"/>
<path d="M64.6212 41.6843V42.6166L64.8103 43.9138H64.3919C64.2295 43.9138 64.1617 43.9271 63.1358 44.2519C62.6362 44.4009 62.0277 44.4821 61.3524 44.4821C59.974 44.4821 59.163 44.1984 58.3797 43.4553C57.4742 42.5908 56.9746 41.3882 56.9746 40.0365C56.9746 38.7661 57.4207 37.5644 58.1906 36.7391C59.0283 35.8479 60.0686 35.4419 61.5138 35.4419C62.4194 35.4419 63.0002 35.5498 64.3384 35.9959L64.433 38.0497L64.1627 38.2388C63.3116 36.55 62.5951 35.9959 61.2712 35.9959C59.5413 35.9959 58.3797 37.5768 58.3797 39.9143C58.3797 42.2249 59.7037 43.8326 61.6084 43.8326C62.8645 43.8326 63.4997 43.3187 63.4997 42.3329V41.7788C63.4997 40.8198 63.2428 40.5361 62.2025 40.3326V40.0088H65.648V40.2791C64.8103 40.5495 64.6212 40.8064 64.6212 41.6843Z" fill="white"/>
<path d="M69.3675 44.4822C67.7054 44.4822 66.7598 43.4143 66.7598 41.5363C66.7598 39.2934 68.0159 37.915 70.0295 37.915C71.6916 37.915 72.6373 38.9687 72.6373 40.86C72.6373 43.1038 71.3945 44.4822 69.3675 44.4822ZM69.6646 38.4691C68.6779 38.4691 67.9758 39.5504 67.9758 41.0768C67.9758 42.7389 68.7056 43.9282 69.7324 43.9282C70.7192 43.9282 71.4213 42.8201 71.4213 41.2803C71.4213 39.6449 70.6915 38.4691 69.6646 38.4691Z" fill="white"/>
<path d="M78.5979 38.5094C78.4498 38.6174 78.2597 38.9011 78.1394 39.1714L76.0856 43.9141C75.8965 44.3468 75.7074 44.5761 75.5182 44.5761H75.4781L73.7482 39.1714C73.6269 38.7931 73.4368 38.5629 73.0996 38.4282V38.1445H75.5182V38.4282L75.2479 38.5085C74.9375 38.603 74.8295 38.7387 74.8295 38.9947C74.8295 39.1303 74.8696 39.3462 74.9652 39.6299L75.992 42.8051L77.1135 39.819C77.2348 39.4952 77.2892 39.2249 77.2892 39.0224C77.2892 38.6842 77.0189 38.4951 76.4515 38.4683V38.1445H78.7889V38.4282C78.6924 38.4559 78.6389 38.4961 78.5979 38.5094Z" fill="white"/>
<path d="M81.6256 44.441C80.2205 44.441 79.248 43.2107 79.248 41.4282C79.248 39.3067 80.4096 37.9961 82.2608 37.9961C83.4902 37.9961 84.1923 38.617 84.1923 39.6849C84.1923 39.9553 84.1655 40.3058 84.0977 40.6984H80.274V41.0499C80.274 42.5764 81.0171 43.4819 82.2742 43.4819C82.7738 43.4819 83.0852 43.4007 83.963 43.0769L84.2334 43.1314C84.0719 43.8058 82.8148 44.441 81.6256 44.441ZM83.1664 39.6305C83.1664 39.0631 82.6668 38.6036 82.0172 38.6036C81.2607 38.6036 80.6799 39.1443 80.3685 40.1444H82.9763L83.1654 39.9142L83.1664 39.6305Z" fill="white"/>
<path d="M89.0995 39.428L88.9916 39.6038C88.6267 39.4147 88.2895 39.3201 88.0182 39.3201C87.6533 39.3201 87.3562 39.5904 87.0314 40.1712V42.522C87.0314 43.5899 87.3295 43.8736 88.5178 43.9682V44.292H85.0723V43.9682C85.7476 43.7925 85.8832 43.5766 85.9234 42.522L86.0046 40.2791C86.0179 40.1979 86.0179 40.1177 86.0179 40.0365C86.0179 39.1176 85.91 38.9151 85.2614 38.6037V38.3333L87.0314 37.9551V39.4949C88.0048 38.2388 88.3019 38.0219 89.004 38.0219C89.2466 38.0219 89.4367 38.2111 89.4367 38.4547C89.4376 38.7393 89.3154 39.0765 89.0995 39.428Z" fill="white"/>
<path d="M93.535 44.2921V43.9683C94.2782 43.847 94.4262 43.6301 94.4673 42.5221L94.5619 40.2792V40.198C94.5619 39.3603 94.1435 38.8473 93.4538 38.8473C92.9944 38.8473 92.6705 38.9419 91.8596 39.3469V42.5221C91.8596 43.0083 91.8997 43.3464 91.9541 43.4955C92.0487 43.7381 92.3056 43.8737 92.7919 43.9683V44.2921H89.9004V43.9683C90.5891 43.7925 90.7114 43.59 90.7515 42.5221L90.8327 40.2792C90.8461 40.2248 90.8461 40.1579 90.8461 40.0901C90.8461 39.1979 90.6837 38.8741 90.0895 38.6038V38.3334L91.7249 37.915L91.8596 37.9962V38.9285C93.0354 38.1854 93.5751 37.9561 94.2247 37.9561C94.5762 37.9561 95.008 38.1175 95.2248 38.3344C95.4674 38.577 95.5897 39.0097 95.5897 39.6316V42.523C95.5897 43.6177 95.6709 43.739 96.4274 43.9692V44.2931L93.535 44.2921Z" fill="white"/>
<path d="M104.629 44.2921V43.9683C105.372 43.847 105.521 43.6302 105.562 42.5221L105.656 40.2792V40.1847C105.656 39.3603 105.238 38.833 104.588 38.833C104.142 38.833 103.832 38.9677 102.954 39.495V42.5211C102.954 43.0073 102.994 43.3455 103.048 43.4945C103.143 43.7371 103.4 43.8728 103.886 43.9674V44.2912H100.9V43.9674C101.657 43.846 101.791 43.6292 101.832 42.5211L101.927 40.2783V40.1837C101.927 39.3594 101.522 38.8321 100.86 38.8321C100.455 38.8321 100.251 38.8989 99.2246 39.345V42.5202C99.2246 43.0064 99.2647 43.3445 99.3192 43.4936C99.4137 43.7362 99.6707 43.8718 100.157 43.9664V44.2902H97.2654V43.9664C97.9541 43.7906 98.0764 43.5881 98.1165 42.5202L98.1977 40.2773C98.2111 40.1961 98.2111 40.1159 98.2111 40.0347C98.2111 39.1158 98.1032 38.9133 97.4546 38.6019V38.3315L99.13 37.9533L99.2246 38.0478V38.9257C100.387 38.1825 100.954 37.9533 101.657 37.9533C102.373 37.9533 102.643 38.1959 102.954 39.0747C104.007 38.2102 104.561 37.9533 105.331 37.9533C105.764 37.9533 106.156 38.1424 106.399 38.4261C106.588 38.6687 106.683 39.0336 106.683 39.6287V42.5202C106.683 43.6149 106.764 43.7496 107.521 43.9664V44.2902H104.629V44.2921Z" fill="white"/>
<path d="M110.835 44.441C109.429 44.441 108.457 43.2107 108.457 41.4282C108.457 39.3067 109.619 37.9961 111.47 37.9961C112.699 37.9961 113.401 38.617 113.401 39.6849C113.401 39.9553 113.375 40.3058 113.307 40.6984H109.483V41.0499C109.483 42.5764 110.226 43.4819 111.483 43.4819C111.983 43.4819 112.294 43.4007 113.172 43.0769L113.442 43.1314C113.28 43.8058 112.023 44.441 110.835 44.441ZM112.374 39.6305C112.374 39.0631 111.875 38.6036 111.225 38.6036C110.469 38.6036 109.888 39.1443 109.577 40.1444H112.184L112.373 39.9142L112.374 39.6305Z" fill="white"/>
<path d="M117.918 44.2921V43.9683C118.661 43.847 118.809 43.6301 118.85 42.5221L118.945 40.2792V40.198C118.945 39.3603 118.526 38.8473 117.837 38.8473C117.377 38.8473 117.053 38.9419 116.242 39.3469V42.5221C116.242 43.0083 116.282 43.3464 116.337 43.4955C116.431 43.7381 116.688 43.8737 117.175 43.9683V44.2921H114.283V43.9683C114.972 43.7925 115.094 43.59 115.134 42.5221L115.215 40.2792C115.229 40.2248 115.229 40.1579 115.229 40.0901C115.229 39.1979 115.066 38.8741 114.472 38.6038V38.3334L116.108 37.915L116.242 37.9962V38.9285C117.418 38.1854 117.958 37.9561 118.607 37.9561C118.959 37.9561 119.391 38.1175 119.608 38.3344C119.85 38.577 119.973 39.0097 119.973 39.6316V42.523C119.973 43.6177 120.054 43.739 120.81 43.9692V44.2931L117.918 44.2921Z" fill="white"/>
<path d="M123.715 44.4277C122.675 44.4277 122.228 44.0093 122.256 42.9146L122.336 39.2265L121.701 38.5101L121.741 38.1452C122.12 37.9427 122.268 37.8347 122.484 37.6313C122.741 37.3743 122.849 37.2129 123.12 36.7534L123.485 36.8891L123.377 38.2942L125.052 38.1863C125.296 38.1729 125.43 38.3076 125.43 38.5244C125.43 38.8224 125.16 39.024 124.782 39.024H123.377V42.3348C123.377 43.2394 123.687 43.7399 124.254 43.7399C124.565 43.7399 124.971 43.6186 125.429 43.4018L125.524 43.6855C124.864 44.3064 124.553 44.4277 123.715 44.4277Z" fill="white"/>
<path d="M131.204 44.4822C129.541 44.4822 128.596 43.4143 128.596 41.5363C128.596 39.2934 129.852 37.9151 131.866 37.9151C133.528 37.9151 134.473 38.9687 134.473 40.86C134.473 43.1038 133.231 44.4822 131.204 44.4822ZM131.501 38.4691C130.514 38.4691 129.812 39.5504 129.812 41.0768C129.812 42.7389 130.542 43.9282 131.568 43.9282C132.555 43.9282 133.257 42.8201 133.257 41.2803C133.257 39.645 132.528 38.4691 131.501 38.4691Z" fill="white"/>
<path d="M140.543 35.9425C139.936 35.3617 139.544 35.1592 139.03 35.1592C138.503 35.1592 138.138 35.4161 137.828 35.9969C137.611 36.4153 137.557 36.7668 137.49 37.6991L137.449 38.2799L139.125 38.1853C139.367 38.172 139.503 38.321 139.503 38.5368C139.503 38.9017 139.409 38.9829 138.949 38.9829H137.449L137.544 42.523C137.557 42.9414 137.584 43.2251 137.639 43.3607C137.76 43.6846 138.138 43.8746 138.855 43.9692V44.293H135.49V43.9692C136.233 43.8479 136.423 43.5365 136.423 42.523V39.3345L135.585 38.6992V38.5101L136.49 37.9427C136.571 36.5777 136.774 36.0103 137.409 35.3751C137.909 34.8611 138.639 34.5908 139.517 34.5908C140.626 34.5908 141.274 34.821 141.274 35.2127C141.273 35.5642 141.043 35.7801 140.543 35.9425Z" fill="white"/>
<path d="M142.41 44.2924V44.0087C143.491 43.8463 143.707 43.5903 143.707 42.5223V37.4014C143.707 36.3611 143.505 36.1042 142.505 35.9017V35.6313H146.139V35.9017C145.058 36.0774 144.829 36.3344 144.829 37.4014V42.5223C144.829 43.5903 145.058 43.8463 146.139 44.0087V44.2924H142.41Z" fill="white"/>
<path d="M150.896 39.4281L150.789 39.6039C150.424 39.4148 150.086 39.3202 149.815 39.3202C149.45 39.3202 149.153 39.5905 148.828 40.1713V42.5221C148.828 43.59 149.126 43.8737 150.315 43.9683V44.2921H146.869V43.9683C147.545 43.7925 147.68 43.5767 147.72 42.5221L147.802 40.2792C147.815 40.198 147.815 40.1178 147.815 40.0366C147.815 39.1177 147.707 38.9152 147.058 38.6038V38.3334L148.828 37.9552V39.495C149.802 38.2389 150.099 38.022 150.801 38.022C151.044 38.022 151.234 38.2112 151.234 38.4548C151.234 38.7394 151.112 39.0766 150.896 39.4281Z" fill="white"/>
<path d="M154.167 44.441C152.761 44.441 151.789 43.2107 151.789 41.4282C151.789 39.3067 152.951 37.9961 154.802 37.9961C156.031 37.9961 156.733 38.617 156.733 39.6849C156.733 39.9553 156.707 40.3058 156.639 40.6984H152.815V41.0499C152.815 42.5764 153.558 43.4819 154.815 43.4819C155.315 43.4819 155.626 43.4007 156.504 43.0769L156.774 43.1314C156.613 43.8058 155.356 44.441 154.167 44.441ZM155.707 39.6305C155.707 39.0631 155.208 38.6036 154.558 38.6036C153.802 38.6036 153.221 39.1443 152.91 40.1444H155.517L155.706 39.9142L155.707 39.6305Z" fill="white"/>
<path d="M157.48 44.2921V43.9682C158.224 43.8469 158.373 43.6167 158.413 42.522L158.507 39.9143V37.3208C158.507 35.9157 158.399 35.6053 157.859 35.3617V34.97L159.534 34.6997L159.723 34.8755L159.534 38.3343V42.523C159.534 43.0092 159.561 43.3473 159.63 43.4964C159.724 43.739 159.968 43.8746 160.467 43.9692V44.293L157.48 44.2921Z" fill="white"/>
<path d="M165.98 44.3466C165.778 44.3733 165.575 44.401 165.413 44.401C164.859 44.401 164.683 44.252 164.521 43.7114C163.71 44.2921 163.332 44.4278 162.616 44.4278C161.724 44.4278 161.17 43.9416 161.17 43.1439C161.17 42.4676 161.535 42.0894 162.562 41.7111L164.614 40.9546V39.8198C164.614 38.9419 164.399 38.685 163.655 38.685C162.98 38.685 162.71 38.9276 162.372 39.8198C162.331 39.9277 162.277 40.0767 162.182 40.2792C161.683 40.2114 161.439 40.0366 161.439 39.7395C161.439 39.2801 162.182 38.6181 163.101 38.2666C163.507 38.1176 164.101 37.9962 164.466 37.9962C165.318 37.9962 165.682 38.3745 165.682 39.239V39.4959L165.547 42.6577V42.7657C165.547 43.4276 165.736 43.6435 166.654 43.9683V44.2654L165.98 44.3466ZM163.238 41.9814C162.617 42.2384 162.319 42.5622 162.319 42.9816C162.319 43.3732 162.684 43.7381 163.09 43.7381C163.333 43.7381 163.684 43.6569 164.116 43.4955C164.211 43.4687 164.346 43.4143 164.522 43.3598L164.616 41.414L163.238 41.9814Z" fill="white"/>
<path d="M170.941 44.2921V43.9683C171.684 43.847 171.833 43.6301 171.874 42.5221L171.969 40.2792V40.198C171.969 39.3603 171.551 38.8473 170.861 38.8473C170.403 38.8473 170.078 38.9419 169.267 39.3469V42.5221C169.267 43.0083 169.307 43.3464 169.361 43.4955C169.457 43.7381 169.713 43.8737 170.199 43.9683V44.2921H167.309V43.9683C167.997 43.7925 168.12 43.59 168.16 42.5221L168.241 40.2792C168.255 40.2248 168.255 40.1579 168.255 40.0901C168.255 39.1979 168.093 38.8741 167.498 38.6038V38.3334L169.133 37.915L169.269 37.9962V38.9285C170.444 38.1854 170.984 37.9561 171.634 37.9561C171.984 37.9561 172.417 38.1175 172.634 38.3344C172.877 38.577 172.999 39.0097 172.999 39.6316V42.523C172.999 43.6177 173.08 43.739 173.837 43.9692V44.2931L170.941 44.2921Z" fill="white"/>
<path d="M179.238 44.4821L179.062 44.293V43.6444C178.36 44.2386 177.819 44.4821 177.131 44.4821C175.739 44.4821 174.766 43.2518 174.766 41.4818C174.766 39.4691 176.049 37.956 177.766 37.956C178.198 37.956 178.455 38.0105 179.062 38.2397V37.2253C179.062 35.8479 178.845 35.4553 177.981 35.2528V34.9289L180.075 34.6987L180.264 34.8745L180.075 38.1442V42.522C180.075 43.3597 180.224 43.5766 180.927 43.7781V44.102L179.238 44.4821ZM179.063 40.0088C179.063 39.1443 178.577 38.5626 177.848 38.5626C176.753 38.5626 175.888 39.6306 175.888 40.9812C175.888 42.5344 176.712 43.589 177.928 43.589C178.347 43.589 178.564 43.5345 179.063 43.2642V40.0088Z" fill="white"/>
</g>
<defs>
<clipPath id="clip0_209_1005">
<rect width="180.926" height="64" fill="white"/>
</clipPath>
</defs>
</svg>
