<svg width="80" height="80" viewBox="0 0 80 80" fill="none" xmlns="http://www.w3.org/2000/svg">
<path fill-rule="evenodd" clip-rule="evenodd" d="M37.3333 10.9333H29.4666C25.122 10.9333 21.5999 14.4553 21.5999 18.7999C21.5999 23.1446 25.122 26.6666 29.4666 26.6666H37.3333V10.9333ZM37.3333 5.59995H42.6666H50.5333C57.8237 5.59995 63.733 11.5098 63.733 18.7999C63.733 23.102 61.6754 26.9235 58.4898 29.3333C61.6754 31.7431 63.733 35.5646 63.733 39.8667C63.733 47.1568 57.8237 53.0667 50.5333 53.0667C47.5856 53.0667 44.8636 52.1005 42.6666 50.4675V53.0667V60.9333C42.6666 68.2235 36.7567 74.1333 29.4666 74.1333C22.1764 74.1333 16.2666 68.2235 16.2666 60.9333C16.2666 56.6309 18.3246 52.8098 21.5099 50.3999C18.3246 47.9901 16.2666 44.1687 16.2666 39.8667C16.2666 35.5646 18.3247 31.7431 21.51 29.3333C18.3247 26.9235 16.2666 23.102 16.2666 18.7999C16.2666 11.5098 22.1764 5.59995 29.4666 5.59995H37.3333ZM42.6666 10.9333V26.6666H50.5333C54.8781 26.6666 58.3997 23.1446 58.3997 18.7999C58.3997 14.4553 54.8781 10.9333 50.5333 10.9333H42.6666ZM29.4666 47.7332H37.3333V39.8869V39.8667V39.8464V32H29.4666C25.122 32 21.5999 35.522 21.5999 39.8667C21.5999 44.2009 25.1051 47.7165 29.4354 47.7333L29.4666 47.7332ZM21.5999 60.9333C21.5999 56.5989 25.1051 53.0835 29.4354 53.0666L29.4666 53.0667H37.3333V60.9333C37.3333 65.2779 33.8112 68.8 29.4666 68.8C25.122 68.8 21.5999 65.2779 21.5999 60.9333ZM42.6666 39.851C42.6751 35.5135 46.1939 32 50.5333 32C54.8781 32 58.3997 35.522 58.3997 39.8667C58.3997 44.2113 54.8781 47.7333 50.5333 47.7333C46.1939 47.7333 42.6751 44.2198 42.6666 39.8823V39.851Z" fill="#686D78"/>
</svg>
