<svg width="80" height="80" viewBox="0 0 80 80" fill="none" xmlns="http://www.w3.org/2000/svg">
<path d="M64.1656 28.2375C63.3667 27.9646 62.562 27.7104 61.7516 27.475C61.8859 26.9281 62.0099 26.3781 62.1234 25.825C63.9516 16.9344 62.7562 9.77187 58.6766 7.41406C54.7703 5.15156 48.3641 7.50937 41.9016 13.1469C41.2661 13.7031 40.6438 14.276 40.0344 14.8656C39.6281 14.474 39.2115 14.0906 38.7844 13.7156C32.0109 7.6875 25.2219 5.14843 21.1469 7.51406C17.2406 9.78125 16.0797 16.5141 17.725 24.9406C17.8896 25.774 18.0745 26.6036 18.2797 27.4297C17.3187 27.7031 16.3906 27.9953 15.5031 28.3047C7.57188 31.0781 2.5 35.4266 2.5 39.9359C2.5 44.5953 7.94375 49.2672 16.2141 52.1C16.8849 52.3281 17.562 52.5401 18.2453 52.7359C18.0234 53.6203 17.8271 54.5146 17.6562 55.4187C16.0938 63.7 17.3125 70.2734 21.2109 72.5266C25.2375 74.8531 31.9922 72.4625 38.5766 66.6969C39.0974 66.2406 39.6182 65.7588 40.1391 65.2516C40.7974 65.888 41.4745 66.5057 42.1703 67.1047C48.5453 72.6016 54.8406 74.8219 58.7328 72.5625C62.7563 70.2281 64.0641 63.1656 62.3656 54.5734C62.2354 53.9172 62.0854 53.2474 61.9156 52.5641C62.3906 52.4234 62.8557 52.2781 63.3109 52.1281C71.9047 49.2734 77.5031 44.6578 77.5031 39.9406C77.5 35.4094 72.2656 31.0328 64.1656 28.2375ZM44.0094 15.5687C49.5453 10.7391 54.7203 8.83281 57.0797 10.1953C59.5906 11.6469 60.5672 17.5 58.9891 25.1766C58.8849 25.6766 58.7724 26.175 58.6516 26.6719C55.3479 25.9204 51.9977 25.3901 48.6234 25.0844C46.6915 22.3014 44.5736 19.6521 42.2844 17.1547C42.8448 16.6109 43.4188 16.0823 44.0063 15.5687H44.0094ZM24.6453 43.7891C25.3234 45.1016 26.0323 46.3979 26.7719 47.6781C27.525 48.9844 28.3099 50.2714 29.1266 51.5391C26.8048 51.2866 24.4976 50.9148 22.2141 50.425C22.8766 48.2812 23.6922 46.0547 24.6453 43.7891ZM24.6453 36.2375C23.7078 34.0203 22.9141 31.8391 22.2625 29.7328C24.4031 29.2531 26.6844 28.8609 29.0625 28.5641C28.2656 29.8078 27.499 31.0698 26.7625 32.35C26.026 33.6302 25.3187 34.926 24.6406 36.2375H24.6453ZM26.3484 40.0141C27.3359 37.9547 28.3995 35.9349 29.5391 33.9547C30.6776 31.9755 31.8896 30.0417 33.175 28.1531C35.4063 27.9844 37.6937 27.8953 40.0047 27.8953C42.3156 27.8953 44.6172 27.9844 46.8469 28.1547C48.1188 30.0391 49.3234 31.9661 50.4609 33.9359C51.5984 35.9057 52.676 37.9161 53.6938 39.9672C52.6896 42.0338 51.6146 44.062 50.4688 46.0516C49.3323 48.0307 48.1344 49.9703 46.875 51.8703C44.6484 52.0266 42.3438 52.1125 40 52.1125C37.6562 52.1125 35.3953 52.0391 33.2094 51.8969C31.9146 50.0021 30.6927 48.0599 29.5438 46.0703C28.3948 44.0807 27.3281 42.062 26.3438 40.0141H26.3484ZM53.2422 47.6562C53.9974 46.3458 54.7224 45.0182 55.4172 43.6734C56.3696 45.8329 57.2103 48.04 57.9359 50.2859C55.6256 50.8062 53.2896 51.2052 50.9375 51.4812C51.7312 50.2219 52.4995 48.9469 53.2422 47.6562ZM55.3859 36.2391C54.6943 34.9213 53.975 33.6193 53.2281 32.3328C52.499 31.0641 51.7391 29.8109 50.9484 28.5734C53.3406 28.8766 55.6359 29.2797 57.7875 29.7719C57.0957 31.9664 56.2942 34.1249 55.3859 36.2391ZM40.0359 19.45C41.5962 21.1548 43.0694 22.9373 44.45 24.7906C41.4969 24.65 38.5417 24.65 35.5844 24.7906C37.0422 22.8625 38.5344 21.0734 40.0359 19.45ZM22.7594 10.2906C25.2688 8.83437 30.8172 10.9156 36.6656 16.1141C37.0391 16.4469 37.4156 16.7953 37.7906 17.1562C35.4896 19.6533 33.3568 22.3003 31.4062 25.0797C28.0395 25.383 24.6959 25.905 21.3969 26.6422C21.2063 25.8755 21.0344 25.1036 20.8812 24.3266C19.4672 17.1031 20.4031 11.6578 22.7594 10.2906ZM19.1016 49.6422C18.4766 49.4641 17.8594 49.2708 17.25 49.0625C13.5938 47.8125 10.5734 46.1812 8.5 44.4047C6.64375 42.8125 5.70312 41.2234 5.70312 39.9359C5.70312 37.2 9.775 33.7094 16.5656 31.3422C17.4187 31.0453 18.2792 30.774 19.1469 30.5281C20.1554 33.7692 21.3768 36.9402 22.8031 40.0203C21.3598 43.143 20.1233 46.3573 19.1016 49.6422ZM36.4656 64.2781C33.5547 66.8281 30.6391 68.6359 28.0687 69.5469C25.7594 70.3641 23.9203 70.3875 22.8094 69.7453C20.4437 68.3781 19.4594 63.0984 20.8016 56.0172C20.9609 55.1839 21.1432 54.3505 21.3484 53.5172C24.6805 54.235 28.0576 54.7252 31.4563 54.9844C33.4259 57.7783 35.5763 60.4402 37.8938 62.9531C37.4281 63.4109 36.9516 63.8516 36.4656 64.2781ZM40.125 60.65C38.6062 59.0078 37.0906 57.1906 35.6125 55.2375C37.049 55.2937 38.5115 55.3219 40 55.3219C41.5281 55.3219 43.0406 55.2891 44.5312 55.2219C43.1557 57.1049 41.685 58.9166 40.125 60.65ZM59.5813 65.1172C59.1344 67.5297 58.2359 69.1391 57.125 69.7828C54.7609 71.1547 49.7062 69.3719 44.2562 64.6703C43.6312 64.1328 43.0063 63.5563 42.3703 62.9516C44.6426 60.4289 46.7427 57.7562 48.6562 54.9516C52.0737 54.662 55.4672 54.1373 58.8125 53.3813C58.9656 54 59.101 54.6062 59.2188 55.2C59.9703 58.9969 60.0781 62.4312 59.5813 65.1172ZM62.3 49.0797C61.8906 49.2156 61.4688 49.3469 61.0406 49.475C59.9916 46.2187 58.7226 43.0374 57.2422 39.9531C58.667 36.91 59.8864 33.7749 60.8922 30.5687C61.6594 30.7922 62.4047 31.0266 63.1219 31.275C70.0625 33.6687 74.2969 37.2125 74.2969 39.9359C74.2969 42.8422 69.7234 46.6141 62.3 49.0797Z" fill="#686D78"/>
<path d="M39.9996 46.6484C41.3294 46.6528 42.6305 46.2624 43.7383 45.5268C44.8461 44.7911 45.7106 43.7433 46.2225 42.516C46.7344 41.2887 46.8706 39.9371 46.6138 38.6324C46.357 37.3276 45.7189 36.1284 44.7801 35.1866C43.8414 34.2448 42.6442 33.6027 41.3403 33.3417C40.0364 33.0807 38.6844 33.2124 37.4554 33.7203C36.2265 34.2282 35.1758 35.0893 34.4366 36.1947C33.6974 37.3 33.3028 38.5999 33.3027 39.9297C33.3009 40.8107 33.4727 41.6834 33.8083 42.498C34.144 43.3125 34.6368 44.053 35.2588 44.6769C35.8807 45.3009 36.6195 45.7962 37.433 46.1345C38.2465 46.4728 39.1186 46.6474 39.9996 46.6484Z" fill="#686D78"/>
</svg>
